<svg xmlns="http://www.w3.org/2000/svg" xmlns:xlink="http://www.w3.org/1999/xlink" width="500" zoomAndPan="magnify" viewBox="0 0 375 374.999991" height="500" preserveAspectRatio="xMidYMid meet" version="1.0"><defs><clipPath id="d5e7967e1e"><path d="M 336 187 L 346.746094 187 L 346.746094 197 L 336 197 Z M 336 187 " clip-rule="nonzero"/></clipPath><clipPath id="e3df55dbe7"><path d="M 169 304 L 289 304 L 289 337.332031 L 169 337.332031 Z M 169 304 " clip-rule="nonzero"/></clipPath><clipPath id="49d8aa362f"><path d="M 188 39.582031 L 200 39.582031 L 200 47 L 188 47 Z M 188 39.582031 " clip-rule="nonzero"/></clipPath></defs><rect x="-37.5" width="450" fill="#ffffff" y="-37.499999" height="449.999989" fill-opacity="1"/><rect x="-37.5" width="450" fill="#ffffff" y="-37.499999" height="449.999989" fill-opacity="1"/><path fill="#083459" d="M 177.675781 204.453125 C 176.375 196.894531 169.183594 191.816406 161.605469 193.109375 C 110.550781 201.867188 67.238281 198.589844 43.078125 195.1875 C 43.460938 202.03125 44.304688 208.757812 45.585938 215.328125 C 46.464844 219.835938 50.203125 223.238281 54.785156 223.660156 C 68.78125 224.945312 88.304688 226.316406 97.988281 226.417969 C 116.554688 226.613281 139.292969 225.140625 166.320312 220.503906 C 173.898438 219.199219 178.984375 212.015625 177.675781 204.453125 Z M 163.726562 215.472656 C 158.71875 215.414062 154.710938 211.324219 154.765625 206.328125 C 154.824219 201.335938 158.914062 197.328125 163.921875 197.382812 C 168.921875 197.433594 172.933594 201.53125 172.882812 206.519531 C 172.832031 211.515625 168.726562 215.523438 163.726562 215.472656 Z M 163.726562 215.472656 " fill-opacity="1" fill-rule="nonzero"/><path fill="#31d8ff" d="M 323.109375 136.722656 C 323.109375 137.03125 323.082031 137.335938 323.019531 137.640625 C 322.960938 137.941406 322.871094 138.238281 322.753906 138.523438 C 322.632812 138.808594 322.488281 139.078125 322.316406 139.335938 C 322.144531 139.59375 321.949219 139.832031 321.730469 140.050781 C 321.511719 140.269531 321.273438 140.464844 321.015625 140.636719 C 320.757812 140.808594 320.484375 140.953125 320.199219 141.070312 C 319.914062 141.1875 319.621094 141.277344 319.316406 141.339844 C 319.011719 141.398438 318.707031 141.429688 318.394531 141.429688 C 318.085938 141.429688 317.78125 141.398438 317.476562 141.339844 C 317.171875 141.277344 316.878906 141.1875 316.589844 141.070312 C 316.304688 140.953125 316.035156 140.808594 315.777344 140.636719 C 315.519531 140.464844 315.28125 140.269531 315.0625 140.050781 C 314.84375 139.832031 314.648438 139.59375 314.476562 139.335938 C 314.304688 139.078125 314.15625 138.808594 314.039062 138.523438 C 313.921875 138.238281 313.832031 137.941406 313.769531 137.640625 C 313.710938 137.335938 313.679688 137.03125 313.679688 136.722656 C 313.679688 136.410156 313.710938 136.105469 313.769531 135.804688 C 313.832031 135.5 313.921875 135.207031 314.039062 134.917969 C 314.15625 134.632812 314.304688 134.363281 314.476562 134.105469 C 314.648438 133.847656 314.84375 133.609375 315.0625 133.390625 C 315.28125 133.171875 315.519531 132.980469 315.777344 132.808594 C 316.035156 132.636719 316.304688 132.488281 316.589844 132.371094 C 316.878906 132.253906 317.171875 132.164062 317.476562 132.105469 C 317.78125 132.042969 318.085938 132.011719 318.394531 132.011719 C 318.707031 132.011719 319.011719 132.042969 319.316406 132.105469 C 319.621094 132.164062 319.914062 132.253906 320.199219 132.371094 C 320.484375 132.488281 320.757812 132.636719 321.015625 132.808594 C 321.273438 132.980469 321.511719 133.171875 321.730469 133.390625 C 321.949219 133.609375 322.144531 133.847656 322.316406 134.105469 C 322.488281 134.363281 322.632812 134.632812 322.753906 134.917969 C 322.871094 135.207031 322.960938 135.5 323.019531 135.804688 C 323.082031 136.105469 323.109375 136.410156 323.109375 136.722656 Z M 323.109375 136.722656 " fill-opacity="1" fill-rule="nonzero"/><path fill="#31d8ff" d="M 343.921875 159.863281 C 343.921875 160.195312 343.890625 160.523438 343.824219 160.851562 C 343.761719 161.175781 343.664062 161.492188 343.535156 161.800781 C 343.410156 162.105469 343.253906 162.398438 343.070312 162.671875 C 342.882812 162.949219 342.675781 163.207031 342.4375 163.441406 C 342.203125 163.675781 341.949219 163.882812 341.671875 164.070312 C 341.394531 164.253906 341.101562 164.410156 340.796875 164.535156 C 340.488281 164.664062 340.171875 164.757812 339.84375 164.824219 C 339.519531 164.890625 339.1875 164.921875 338.855469 164.921875 C 338.523438 164.921875 338.195312 164.890625 337.867188 164.824219 C 337.542969 164.757812 337.226562 164.664062 336.917969 164.535156 C 336.609375 164.410156 336.316406 164.253906 336.042969 164.070312 C 335.765625 163.882812 335.507812 163.675781 335.273438 163.441406 C 335.039062 163.207031 334.828125 162.949219 334.644531 162.671875 C 334.457031 162.398438 334.304688 162.105469 334.175781 161.800781 C 334.046875 161.492188 333.953125 161.175781 333.886719 160.851562 C 333.824219 160.523438 333.789062 160.195312 333.789062 159.863281 C 333.789062 159.53125 333.824219 159.203125 333.886719 158.875 C 333.953125 158.550781 334.046875 158.234375 334.175781 157.925781 C 334.304688 157.621094 334.457031 157.328125 334.644531 157.054688 C 334.828125 156.777344 335.039062 156.519531 335.273438 156.285156 C 335.507812 156.050781 335.765625 155.84375 336.042969 155.65625 C 336.316406 155.472656 336.609375 155.316406 336.917969 155.191406 C 337.226562 155.0625 337.542969 154.96875 337.867188 154.902344 C 338.195312 154.835938 338.523438 154.804688 338.855469 154.804688 C 339.1875 154.804688 339.519531 154.835938 339.84375 154.902344 C 340.171875 154.96875 340.488281 155.0625 340.796875 155.191406 C 341.101562 155.316406 341.394531 155.472656 341.671875 155.65625 C 341.949219 155.84375 342.203125 156.050781 342.4375 156.285156 C 342.675781 156.519531 342.882812 156.777344 343.070312 157.054688 C 343.253906 157.328125 343.410156 157.621094 343.535156 157.925781 C 343.664062 158.234375 343.761719 158.550781 343.824219 158.875 C 343.890625 159.203125 343.921875 159.53125 343.921875 159.863281 Z M 343.921875 159.863281 " fill-opacity="1" fill-rule="nonzero"/><path fill="#31d8ff" d="M 335.46875 124.960938 C 335.46875 125.222656 335.441406 125.480469 335.390625 125.734375 C 335.339844 125.988281 335.265625 126.238281 335.164062 126.476562 C 335.066406 126.71875 334.945312 126.945312 334.800781 127.164062 C 334.65625 127.378906 334.488281 127.578125 334.304688 127.761719 C 334.121094 127.945312 333.921875 128.109375 333.703125 128.253906 C 333.488281 128.398438 333.257812 128.523438 333.019531 128.621094 C 332.777344 128.722656 332.53125 128.796875 332.273438 128.847656 C 332.019531 128.898438 331.761719 128.921875 331.5 128.921875 C 331.238281 128.921875 330.980469 128.898438 330.726562 128.847656 C 330.472656 128.796875 330.222656 128.722656 329.984375 128.621094 C 329.742188 128.523438 329.511719 128.398438 329.296875 128.253906 C 329.078125 128.109375 328.878906 127.945312 328.695312 127.761719 C 328.511719 127.578125 328.347656 127.378906 328.203125 127.164062 C 328.058594 126.945312 327.933594 126.71875 327.835938 126.476562 C 327.734375 126.238281 327.660156 125.988281 327.609375 125.734375 C 327.558594 125.480469 327.535156 125.222656 327.535156 124.960938 C 327.535156 124.703125 327.558594 124.445312 327.609375 124.1875 C 327.660156 123.933594 327.734375 123.6875 327.835938 123.445312 C 327.933594 123.207031 328.058594 122.976562 328.203125 122.761719 C 328.347656 122.546875 328.511719 122.34375 328.695312 122.160156 C 328.878906 121.976562 329.078125 121.8125 329.296875 121.667969 C 329.511719 121.523438 329.742188 121.402344 329.984375 121.300781 C 330.222656 121.203125 330.472656 121.128906 330.726562 121.078125 C 330.980469 121.027344 331.238281 121 331.5 121 C 331.761719 121 332.019531 121.027344 332.273438 121.078125 C 332.53125 121.128906 332.777344 121.203125 333.019531 121.300781 C 333.257812 121.402344 333.488281 121.523438 333.703125 121.667969 C 333.921875 121.8125 334.121094 121.976562 334.304688 122.160156 C 334.488281 122.34375 334.65625 122.546875 334.800781 122.761719 C 334.945312 122.976562 335.066406 123.207031 335.164062 123.445312 C 335.265625 123.6875 335.339844 123.933594 335.390625 124.1875 C 335.441406 124.445312 335.46875 124.703125 335.46875 124.960938 Z M 335.46875 124.960938 " fill-opacity="1" fill-rule="nonzero"/><path fill="#31d8ff" d="M 300.671875 143.800781 C 301.125 143.875 301.570312 143.992188 302 144.152344 C 302.429688 144.3125 302.839844 144.511719 303.234375 144.753906 C 303.625 144.996094 303.988281 145.273438 304.324219 145.585938 C 304.660156 145.898438 304.964844 146.242188 305.234375 146.613281 C 305.5 146.988281 305.730469 147.382812 305.921875 147.800781 C 306.113281 148.21875 306.261719 148.648438 306.367188 149.097656 C 306.472656 149.542969 306.535156 149.996094 306.550781 150.457031 C 306.566406 150.914062 306.539062 151.371094 306.464844 151.824219 C 306.390625 152.277344 306.273438 152.71875 306.113281 153.148438 C 305.953125 153.578125 305.75 153.988281 305.507812 154.378906 C 305.265625 154.769531 304.988281 155.132812 304.675781 155.46875 C 304.363281 155.804688 304.019531 156.109375 303.644531 156.375 C 303.273438 156.644531 302.875 156.875 302.457031 157.066406 C 302.039062 157.253906 301.605469 157.402344 301.160156 157.507812 C 300.710938 157.613281 300.257812 157.675781 299.796875 157.691406 C 299.339844 157.707031 298.882812 157.679688 298.425781 157.605469 C 297.972656 157.53125 297.53125 157.414062 297.101562 157.253906 C 296.667969 157.09375 296.257812 156.894531 295.867188 156.652344 C 295.476562 156.410156 295.113281 156.132812 294.777344 155.820312 C 294.4375 155.507812 294.136719 155.164062 293.867188 154.792969 C 293.597656 154.417969 293.367188 154.023438 293.175781 153.605469 C 292.988281 153.1875 292.839844 152.757812 292.734375 152.308594 C 292.628906 151.863281 292.566406 151.410156 292.550781 150.949219 C 292.535156 150.492188 292.5625 150.035156 292.636719 149.582031 C 292.710938 149.128906 292.828125 148.6875 292.988281 148.257812 C 293.148438 147.828125 293.351562 147.417969 293.589844 147.027344 C 293.832031 146.636719 294.109375 146.273438 294.425781 145.9375 C 294.738281 145.601562 295.082031 145.296875 295.453125 145.03125 C 295.828125 144.761719 296.222656 144.53125 296.640625 144.339844 C 297.058594 144.148438 297.492188 144.003906 297.941406 143.898438 C 298.386719 143.792969 298.84375 143.730469 299.300781 143.714844 C 299.761719 143.699219 300.21875 143.726562 300.671875 143.800781 Z M 300.671875 143.800781 " fill-opacity="1" fill-rule="nonzero"/><path fill="#0ca6e2" d="M 282.78125 168.660156 C 282.78125 169.238281 282.726562 169.8125 282.613281 170.378906 C 282.5 170.945312 282.332031 171.496094 282.109375 172.027344 C 281.890625 172.5625 281.617188 173.070312 281.296875 173.550781 C 280.976562 174.03125 280.609375 174.476562 280.199219 174.882812 C 279.792969 175.292969 279.347656 175.65625 278.867188 175.976562 C 278.382812 176.296875 277.875 176.570312 277.339844 176.789062 C 276.808594 177.011719 276.257812 177.179688 275.6875 177.292969 C 275.121094 177.402344 274.546875 177.460938 273.96875 177.460938 C 273.390625 177.460938 272.816406 177.402344 272.25 177.292969 C 271.683594 177.179688 271.132812 177.011719 270.597656 176.789062 C 270.0625 176.570312 269.554688 176.296875 269.074219 175.976562 C 268.59375 175.65625 268.148438 175.292969 267.738281 174.882812 C 267.328125 174.476562 266.964844 174.03125 266.640625 173.550781 C 266.320312 173.070312 266.050781 172.5625 265.828125 172.027344 C 265.605469 171.496094 265.4375 170.945312 265.328125 170.378906 C 265.214844 169.8125 265.15625 169.238281 265.15625 168.660156 C 265.15625 168.085938 265.214844 167.511719 265.328125 166.945312 C 265.4375 166.378906 265.605469 165.828125 265.828125 165.292969 C 266.050781 164.761719 266.320312 164.253906 266.640625 163.773438 C 266.964844 163.292969 267.328125 162.847656 267.738281 162.441406 C 268.148438 162.03125 268.59375 161.667969 269.074219 161.347656 C 269.554688 161.023438 270.0625 160.753906 270.597656 160.53125 C 271.132812 160.3125 271.683594 160.144531 272.25 160.03125 C 272.816406 159.917969 273.390625 159.863281 273.96875 159.863281 C 274.546875 159.863281 275.121094 159.917969 275.6875 160.03125 C 276.257812 160.144531 276.808594 160.3125 277.339844 160.53125 C 277.875 160.753906 278.382812 161.023438 278.867188 161.347656 C 279.347656 161.667969 279.792969 162.03125 280.199219 162.441406 C 280.609375 162.847656 280.976562 163.292969 281.296875 163.773438 C 281.617188 164.253906 281.890625 164.761719 282.109375 165.292969 C 282.332031 165.828125 282.5 166.378906 282.613281 166.945312 C 282.726562 167.511719 282.78125 168.085938 282.78125 168.660156 Z M 282.78125 168.660156 " fill-opacity="1" fill-rule="nonzero"/><g clip-path="url(#d5e7967e1e)"><path fill="#1174a5" d="M 346.667969 192 C 346.667969 192.324219 346.636719 192.644531 346.570312 192.964844 C 346.507812 193.28125 346.414062 193.59375 346.289062 193.890625 C 346.164062 194.191406 346.011719 194.476562 345.832031 194.746094 C 345.652344 195.019531 345.445312 195.265625 345.214844 195.496094 C 344.984375 195.726562 344.734375 195.933594 344.464844 196.113281 C 344.195312 196.292969 343.910156 196.445312 343.609375 196.570312 C 343.308594 196.695312 342.996094 196.789062 342.679688 196.851562 C 342.359375 196.914062 342.035156 196.945312 341.710938 196.945312 C 341.386719 196.945312 341.0625 196.914062 340.746094 196.851562 C 340.425781 196.789062 340.117188 196.695312 339.816406 196.570312 C 339.515625 196.445312 339.230469 196.292969 338.957031 196.113281 C 338.6875 195.933594 338.4375 195.726562 338.207031 195.496094 C 337.976562 195.265625 337.773438 195.019531 337.589844 194.746094 C 337.410156 194.476562 337.257812 194.191406 337.132812 193.890625 C 337.007812 193.59375 336.914062 193.28125 336.851562 192.964844 C 336.789062 192.644531 336.753906 192.324219 336.753906 192 C 336.753906 191.671875 336.789062 191.351562 336.851562 191.035156 C 336.914062 190.714844 337.007812 190.40625 337.132812 190.105469 C 337.257812 189.804688 337.410156 189.519531 337.589844 189.25 C 337.773438 188.980469 337.976562 188.730469 338.207031 188.5 C 338.4375 188.269531 338.6875 188.066406 338.957031 187.882812 C 339.230469 187.703125 339.515625 187.550781 339.816406 187.425781 C 340.117188 187.304688 340.425781 187.210938 340.746094 187.144531 C 341.0625 187.082031 341.386719 187.050781 341.710938 187.050781 C 342.035156 187.050781 342.359375 187.082031 342.679688 187.144531 C 342.996094 187.210938 343.308594 187.304688 343.609375 187.425781 C 343.910156 187.550781 344.195312 187.703125 344.464844 187.882812 C 344.734375 188.066406 344.984375 188.269531 345.214844 188.5 C 345.445312 188.730469 345.652344 188.980469 345.832031 189.25 C 346.011719 189.519531 346.164062 189.804688 346.289062 190.105469 C 346.414062 190.40625 346.507812 190.714844 346.570312 191.035156 C 346.636719 191.351562 346.667969 191.671875 346.667969 192 Z M 346.667969 192 " fill-opacity="1" fill-rule="nonzero"/></g><path fill="#1174a5" d="M 251.351562 183.199219 C 251.351562 183.902344 251.28125 184.59375 251.144531 185.28125 C 251.007812 185.96875 250.804688 186.636719 250.535156 187.285156 C 250.265625 187.933594 249.9375 188.546875 249.546875 189.132812 C 249.15625 189.714844 248.714844 190.253906 248.21875 190.75 C 247.722656 191.246094 247.179688 191.6875 246.597656 192.074219 C 246.015625 192.464844 245.398438 192.792969 244.75 193.0625 C 244.101562 193.332031 243.433594 193.535156 242.742188 193.671875 C 242.054688 193.808594 241.359375 193.875 240.65625 193.875 C 239.957031 193.875 239.261719 193.808594 238.570312 193.671875 C 237.882812 193.535156 237.214844 193.332031 236.566406 193.0625 C 235.917969 192.792969 235.300781 192.464844 234.71875 192.074219 C 234.132812 191.6875 233.59375 191.246094 233.097656 190.75 C 232.601562 190.253906 232.15625 189.714844 231.769531 189.132812 C 231.378906 188.546875 231.046875 187.933594 230.78125 187.285156 C 230.511719 186.636719 230.308594 185.96875 230.171875 185.28125 C 230.035156 184.59375 229.964844 183.902344 229.964844 183.199219 C 229.964844 182.5 230.035156 181.804688 230.171875 181.117188 C 230.308594 180.429688 230.511719 179.761719 230.78125 179.113281 C 231.046875 178.46875 231.378906 177.851562 231.769531 177.269531 C 232.15625 176.6875 232.601562 176.148438 233.097656 175.652344 C 233.59375 175.15625 234.132812 174.714844 234.71875 174.324219 C 235.300781 173.933594 235.917969 173.605469 236.566406 173.335938 C 237.214844 173.070312 237.882812 172.867188 238.570312 172.730469 C 239.261719 172.59375 239.957031 172.523438 240.65625 172.523438 C 241.359375 172.523438 242.054688 172.59375 242.742188 172.730469 C 243.433594 172.867188 244.101562 173.070312 244.75 173.335938 C 245.398438 173.605469 246.015625 173.933594 246.597656 174.324219 C 247.179688 174.714844 247.722656 175.15625 248.21875 175.652344 C 248.714844 176.148438 249.15625 176.6875 249.546875 177.269531 C 249.9375 177.851562 250.265625 178.46875 250.535156 179.113281 C 250.804688 179.761719 251.007812 180.429688 251.144531 181.117188 C 251.28125 181.804688 251.351562 182.5 251.351562 183.199219 Z M 251.351562 183.199219 " fill-opacity="1" fill-rule="nonzero"/><path fill="#083459" d="M 203.363281 187.949219 C 204.085938 188.085938 204.785156 188.292969 205.46875 188.570312 C 206.148438 188.847656 206.796875 189.1875 207.410156 189.59375 C 208.023438 189.996094 208.589844 190.457031 209.113281 190.972656 C 209.636719 191.488281 210.105469 192.050781 210.515625 192.65625 C 210.925781 193.265625 211.277344 193.90625 211.5625 194.582031 C 211.847656 195.257812 212.0625 195.957031 212.210938 196.675781 C 212.359375 197.394531 212.433594 198.121094 212.441406 198.851562 C 212.445312 199.585938 212.378906 200.3125 212.238281 201.035156 C 212.097656 201.753906 211.890625 202.457031 211.613281 203.136719 C 211.335938 203.816406 210.996094 204.460938 210.589844 205.074219 C 210.1875 205.6875 209.726562 206.253906 209.210938 206.773438 C 208.695312 207.296875 208.132812 207.765625 207.523438 208.175781 C 206.914062 208.585938 206.269531 208.933594 205.59375 209.21875 C 204.917969 209.503906 204.21875 209.722656 203.496094 209.867188 C 202.777344 210.015625 202.050781 210.09375 201.316406 210.097656 C 200.582031 210.101562 199.851562 210.035156 199.128906 209.894531 C 198.410156 209.757812 197.707031 209.546875 197.027344 209.273438 C 196.347656 208.996094 195.699219 208.65625 195.085938 208.25 C 194.472656 207.847656 193.902344 207.386719 193.382812 206.871094 C 192.859375 206.355469 192.390625 205.792969 191.980469 205.1875 C 191.566406 204.578125 191.21875 203.9375 190.933594 203.261719 C 190.648438 202.585938 190.429688 201.886719 190.28125 201.167969 C 190.136719 200.449219 190.058594 199.722656 190.054688 198.988281 C 190.050781 198.257812 190.117188 197.527344 190.257812 196.808594 C 190.394531 196.089844 190.601562 195.386719 190.878906 194.707031 C 191.15625 194.027344 191.5 193.382812 191.902344 192.769531 C 192.308594 192.15625 192.769531 191.589844 193.285156 191.066406 C 193.800781 190.546875 194.363281 190.078125 194.972656 189.667969 C 195.582031 189.257812 196.222656 188.910156 196.902344 188.625 C 197.578125 188.339844 198.277344 188.121094 198.996094 187.976562 C 199.714844 187.828125 200.445312 187.75 201.179688 187.746094 C 201.914062 187.742188 202.640625 187.808594 203.363281 187.949219 Z M 203.363281 187.949219 " fill-opacity="1" fill-rule="nonzero"/><path fill="#083459" d="M 241.398438 230.816406 C 239.5 222.101562 230.238281 217.140625 221.777344 219.972656 C 122.414062 253.144531 51.375 232.453125 51.375 232.453125 C 51.375 232.453125 51.175781 232.738281 50.855469 233.25 C 53.523438 241.742188 56.929688 249.914062 61.007812 257.679688 C 63.386719 262.210938 67.71875 265.429688 72.777344 266.25 C 72.804688 266.25 72.835938 266.261719 72.863281 266.269531 C 82.800781 267.886719 149.46875 273.183594 230.269531 248.484375 C 238.0625 246.105469 243.109375 238.703125 241.398438 230.816406 Z M 227.136719 243.269531 C 221.769531 243.566406 217.179688 239.464844 216.894531 234.101562 C 216.59375 228.746094 220.703125 224.160156 226.078125 223.875 C 231.441406 223.574219 236.035156 227.6875 236.320312 233.042969 C 236.617188 238.398438 232.507812 242.984375 227.136719 243.269531 Z M 227.136719 243.269531 " fill-opacity="1" fill-rule="nonzero"/><path fill="#0ca6e2" d="M 322.101562 183.550781 C 317.464844 184.570312 313.265625 180.8125 313.773438 176.097656 C 314.082031 173.238281 316.242188 170.835938 319.046875 170.21875 C 323.683594 169.199219 327.890625 172.960938 327.378906 177.675781 C 327.066406 180.53125 324.90625 182.933594 322.101562 183.550781 Z M 322.101562 183.550781 " fill-opacity="1" fill-rule="nonzero"/><path fill="#1174a5" d="M 307.734375 195.699219 C 307.769531 196.363281 307.742188 197.027344 307.648438 197.6875 C 307.550781 198.347656 307.394531 198.992188 307.171875 199.617188 C 306.953125 200.246094 306.671875 200.847656 306.332031 201.421875 C 305.992188 201.996094 305.597656 202.53125 305.152344 203.027344 C 304.707031 203.523438 304.21875 203.972656 303.683594 204.371094 C 303.148438 204.769531 302.582031 205.113281 301.980469 205.402344 C 301.378906 205.691406 300.753906 205.917969 300.109375 206.082031 C 299.460938 206.25 298.804688 206.351562 298.136719 206.386719 C 297.472656 206.421875 296.808594 206.394531 296.148438 206.300781 C 295.488281 206.207031 294.839844 206.046875 294.210938 205.828125 C 293.582031 205.605469 292.980469 205.324219 292.40625 204.988281 C 291.832031 204.648438 291.296875 204.253906 290.796875 203.808594 C 290.300781 203.367188 289.851562 202.875 289.453125 202.34375 C 289.050781 201.8125 288.707031 201.242188 288.417969 200.644531 C 288.128906 200.042969 287.902344 199.417969 287.738281 198.773438 C 287.570312 198.128906 287.46875 197.472656 287.433594 196.808594 C 287.398438 196.140625 287.425781 195.480469 287.519531 194.820312 C 287.613281 194.160156 287.773438 193.515625 287.992188 192.886719 C 288.214844 192.257812 288.496094 191.65625 288.835938 191.082031 C 289.175781 190.511719 289.566406 189.976562 290.015625 189.480469 C 290.460938 188.984375 290.949219 188.535156 291.484375 188.132812 C 292.015625 187.734375 292.585938 187.390625 293.1875 187.101562 C 293.789062 186.8125 294.414062 186.585938 295.058594 186.421875 C 295.707031 186.257812 296.363281 186.15625 297.027344 186.117188 C 297.695312 186.082031 298.359375 186.113281 299.019531 186.207031 C 299.679688 186.300781 300.324219 186.457031 300.953125 186.679688 C 301.585938 186.898438 302.1875 187.179688 302.761719 187.519531 C 303.335938 187.859375 303.871094 188.25 304.367188 188.695312 C 304.863281 189.140625 305.3125 189.628906 305.714844 190.160156 C 306.113281 190.695312 306.460938 191.261719 306.75 191.863281 C 307.035156 192.464844 307.265625 193.085938 307.429688 193.730469 C 307.597656 194.378906 307.695312 195.035156 307.734375 195.699219 Z M 307.734375 195.699219 " fill-opacity="1" fill-rule="nonzero"/><path fill="#083459" d="M 266.445312 202.835938 C 267.253906 202.945312 268.042969 203.132812 268.8125 203.398438 C 269.585938 203.664062 270.320312 204.003906 271.027344 204.414062 C 271.730469 204.824219 272.386719 205.296875 272.996094 205.835938 C 273.609375 206.378906 274.160156 206.972656 274.652344 207.617188 C 275.144531 208.265625 275.570312 208.957031 275.929688 209.6875 C 276.285156 210.421875 276.566406 211.179688 276.773438 211.96875 C 276.980469 212.753906 277.109375 213.554688 277.160156 214.367188 C 277.210938 215.179688 277.179688 215.988281 277.070312 216.792969 C 276.957031 217.601562 276.769531 218.390625 276.503906 219.160156 C 276.238281 219.929688 275.902344 220.664062 275.492188 221.367188 C 275.078125 222.070312 274.605469 222.726562 274.0625 223.335938 C 273.523438 223.945312 272.929688 224.496094 272.277344 224.988281 C 271.628906 225.480469 270.9375 225.90625 270.207031 226.261719 C 269.472656 226.617188 268.710938 226.898438 267.925781 227.105469 C 267.136719 227.3125 266.335938 227.441406 265.519531 227.492188 C 264.707031 227.539062 263.898438 227.511719 263.089844 227.402344 C 262.28125 227.289062 261.492188 227.101562 260.722656 226.835938 C 259.949219 226.574219 259.214844 226.234375 258.507812 225.824219 C 257.804688 225.414062 257.148438 224.9375 256.539062 224.398438 C 255.925781 223.859375 255.375 223.265625 254.882812 222.617188 C 254.390625 221.96875 253.964844 221.28125 253.605469 220.546875 C 253.25 219.816406 252.96875 219.058594 252.761719 218.269531 C 252.554688 217.484375 252.425781 216.683594 252.375 215.871094 C 252.324219 215.058594 252.355469 214.25 252.464844 213.441406 C 252.578125 212.636719 252.765625 211.847656 253.03125 211.078125 C 253.296875 210.308594 253.632812 209.574219 254.042969 208.871094 C 254.457031 208.167969 254.929688 207.511719 255.472656 206.902344 C 256.011719 206.292969 256.605469 205.742188 257.257812 205.25 C 257.90625 204.757812 258.597656 204.332031 259.328125 203.976562 C 260.0625 203.617188 260.824219 203.335938 261.609375 203.128906 C 262.398438 202.921875 263.199219 202.796875 264.015625 202.746094 C 264.828125 202.695312 265.636719 202.726562 266.445312 202.835938 Z M 266.445312 202.835938 " fill-opacity="1" fill-rule="nonzero"/><path fill="#083459" d="M 301.316406 240.796875 C 297.636719 232.671875 287.621094 229.90625 279.847656 234.296875 C 199.269531 279.800781 113.675781 279.417969 71.707031 275.042969 C 76.355469 281.554688 81.519531 287.671875 87.132812 293.339844 C 92.5 298.761719 99.664062 302.019531 107.273438 302.578125 C 147.238281 305.480469 219.585938 302.269531 294.144531 260.398438 C 301.246094 256.417969 304.648438 248.152344 301.316406 240.796875 Z M 289.988281 255.957031 C 284.804688 257.367188 279.453125 254.316406 278.039062 249.140625 C 276.628906 243.957031 279.691406 238.621094 284.875 237.210938 C 290.058594 235.800781 295.410156 238.855469 296.816406 244.035156 C 298.234375 249.210938 295.171875 254.554688 289.988281 255.957031 Z M 289.988281 255.957031 " fill-opacity="1" fill-rule="nonzero"/><path fill="#083459" d="M 327.804688 229.898438 C 321.628906 232.257812 314.890625 228.40625 313.792969 221.894531 C 312.976562 217.074219 315.742188 212.246094 320.320312 210.503906 C 326.5 208.148438 333.238281 211.996094 334.335938 218.511719 C 335.148438 223.328125 332.386719 228.160156 327.804688 229.898438 Z M 327.804688 229.898438 " fill-opacity="1" fill-rule="nonzero"/><path fill="#083459" d="M 331.507812 242.09375 C 323.800781 260.964844 312.328125 277.898438 298.019531 291.96875 C 246.121094 322.960938 191.574219 329.785156 157.046875 330.421875 C 140.175781 326.222656 124.4375 319.15625 110.390625 309.765625 C 131.695312 312 226.316406 317.957031 308.960938 259.996094 C 316.203125 254.914062 325.582031 244.484375 331.507812 242.09375 Z M 331.507812 242.09375 " fill-opacity="1" fill-rule="nonzero"/><g clip-path="url(#e3df55dbe7)"><path fill="#083459" d="M 288.21875 304.539062 C 273.285156 321.703125 228.542969 346.007812 169.878906 334.222656 C 197.351562 336.460938 250.359375 325.460938 288.21875 304.539062 Z M 288.21875 304.539062 " fill-opacity="1" fill-rule="nonzero"/></g><path fill="#083459" d="M 131.433594 168.523438 C 130.792969 160.875 124.058594 155.199219 116.398438 155.84375 C 88.113281 158.21875 65.359375 157.402344 47.757812 155.34375 C 46.140625 162.441406 45.027344 169.726562 44.460938 177.160156 C 44.222656 180.382812 46.589844 183.21875 49.808594 183.539062 C 49.917969 183.542969 50.03125 183.558594 50.140625 183.570312 C 68.628906 185.355469 91.410156 185.835938 118.734375 183.539062 C 126.394531 182.894531 132.078125 176.175781 131.433594 168.523438 Z M 126.472656 170.167969 C 126 175.140625 121.5625 178.785156 116.585938 178.296875 C 111.605469 177.816406 107.964844 173.402344 108.445312 168.429688 C 108.925781 163.453125 113.355469 159.8125 118.335938 160.296875 C 123.3125 160.773438 126.960938 165.199219 126.472656 170.167969 Z M 126.472656 170.167969 " fill-opacity="1" fill-rule="nonzero"/><path fill="#31d8ff" d="M 275.105469 115.964844 C 275.4375 115.996094 275.761719 116.0625 276.078125 116.15625 C 276.398438 116.253906 276.703125 116.378906 276.996094 116.535156 C 277.292969 116.691406 277.566406 116.875 277.824219 117.085938 C 278.082031 117.296875 278.316406 117.527344 278.527344 117.785156 C 278.738281 118.042969 278.921875 118.316406 279.082031 118.609375 C 279.238281 118.902344 279.367188 119.207031 279.460938 119.523438 C 279.558594 119.84375 279.625 120.167969 279.65625 120.496094 C 279.691406 120.828125 279.691406 121.15625 279.660156 121.488281 C 279.625 121.820312 279.5625 122.144531 279.464844 122.460938 C 279.371094 122.777344 279.246094 123.085938 279.089844 123.378906 C 278.929688 123.671875 278.75 123.945312 278.539062 124.203125 C 278.328125 124.460938 278.09375 124.695312 277.835938 124.90625 C 277.578125 125.117188 277.304688 125.300781 277.011719 125.457031 C 276.71875 125.613281 276.414062 125.742188 276.09375 125.839844 C 275.777344 125.933594 275.453125 126 275.121094 126.03125 C 274.789062 126.066406 274.457031 126.066406 274.128906 126.035156 C 273.796875 126.003906 273.472656 125.9375 273.152344 125.84375 C 272.835938 125.746094 272.527344 125.621094 272.234375 125.464844 C 271.941406 125.308594 271.664062 125.125 271.40625 124.914062 C 271.152344 124.703125 270.917969 124.472656 270.703125 124.214844 C 270.492188 123.957031 270.308594 123.683594 270.152344 123.390625 C 269.996094 123.097656 269.867188 122.792969 269.769531 122.476562 C 269.671875 122.15625 269.609375 121.832031 269.574219 121.503906 C 269.542969 121.171875 269.542969 120.84375 269.574219 120.511719 C 269.605469 120.179688 269.667969 119.855469 269.765625 119.539062 C 269.863281 119.21875 269.988281 118.914062 270.144531 118.621094 C 270.300781 118.328125 270.484375 118.054688 270.695312 117.796875 C 270.90625 117.539062 271.140625 117.304688 271.398438 117.09375 C 271.652344 116.882812 271.929688 116.699219 272.222656 116.542969 C 272.515625 116.386719 272.820312 116.257812 273.136719 116.160156 C 273.457031 116.066406 273.78125 116 274.113281 115.964844 C 274.441406 115.933594 274.773438 115.933594 275.105469 115.964844 Z M 275.105469 115.964844 " fill-opacity="1" fill-rule="nonzero"/><path fill="#31d8ff" d="M 251.574219 128.292969 C 251.976562 128.398438 252.367188 128.542969 252.746094 128.726562 C 253.121094 128.910156 253.476562 129.128906 253.808594 129.382812 C 254.140625 129.632812 254.445312 129.917969 254.722656 130.230469 C 255 130.542969 255.246094 130.878906 255.457031 131.242188 C 255.667969 131.601562 255.839844 131.980469 255.976562 132.375 C 256.113281 132.769531 256.207031 133.175781 256.265625 133.589844 C 256.320312 134.003906 256.335938 134.417969 256.3125 134.835938 C 256.285156 135.253906 256.21875 135.664062 256.113281 136.066406 C 256.007812 136.472656 255.859375 136.859375 255.675781 137.234375 C 255.492188 137.613281 255.277344 137.964844 255.023438 138.296875 C 254.769531 138.632812 254.484375 138.9375 254.171875 139.210938 C 253.859375 139.488281 253.519531 139.734375 253.160156 139.941406 C 252.796875 140.152344 252.417969 140.328125 252.023438 140.460938 C 251.628906 140.597656 251.222656 140.695312 250.808594 140.75 C 250.394531 140.808594 249.976562 140.824219 249.558594 140.796875 C 249.140625 140.773438 248.730469 140.707031 248.324219 140.597656 C 247.921875 140.492188 247.53125 140.347656 247.15625 140.164062 C 246.777344 139.980469 246.421875 139.761719 246.089844 139.511719 C 245.757812 139.257812 245.453125 138.972656 245.175781 138.660156 C 244.898438 138.347656 244.652344 138.011719 244.441406 137.652344 C 244.230469 137.289062 244.058594 136.910156 243.921875 136.515625 C 243.785156 136.121094 243.691406 135.714844 243.632812 135.300781 C 243.578125 134.890625 243.5625 134.472656 243.585938 134.054688 C 243.613281 133.640625 243.679688 133.226562 243.785156 132.824219 C 243.894531 132.421875 244.039062 132.03125 244.222656 131.65625 C 244.40625 131.28125 244.625 130.925781 244.875 130.59375 C 245.128906 130.261719 245.414062 129.957031 245.726562 129.679688 C 246.039062 129.402344 246.378906 129.160156 246.738281 128.949219 C 247.101562 128.738281 247.480469 128.566406 247.875 128.429688 C 248.269531 128.292969 248.675781 128.195312 249.089844 128.140625 C 249.503906 128.082031 249.921875 128.070312 250.339844 128.09375 C 250.757812 128.121094 251.167969 128.1875 251.574219 128.292969 Z M 251.574219 128.292969 " fill-opacity="1" fill-rule="nonzero"/><path fill="#0ca6e2" d="M 219.421875 140.539062 C 219.917969 140.589844 220.402344 140.683594 220.875 140.828125 C 221.351562 140.96875 221.804688 141.15625 222.246094 141.390625 C 222.683594 141.621094 223.09375 141.894531 223.476562 142.210938 C 223.859375 142.523438 224.210938 142.871094 224.523438 143.253906 C 224.839844 143.636719 225.113281 144.042969 225.347656 144.480469 C 225.582031 144.917969 225.773438 145.371094 225.917969 145.84375 C 226.0625 146.316406 226.160156 146.800781 226.207031 147.292969 C 226.257812 147.785156 226.257812 148.277344 226.210938 148.773438 C 226.164062 149.265625 226.066406 149.746094 225.921875 150.222656 C 225.78125 150.695312 225.59375 151.152344 225.359375 151.585938 C 225.125 152.023438 224.851562 152.433594 224.539062 152.816406 C 224.222656 153.199219 223.875 153.550781 223.492188 153.863281 C 223.109375 154.179688 222.699219 154.453125 222.265625 154.6875 C 221.828125 154.921875 221.371094 155.109375 220.898438 155.253906 C 220.421875 155.398438 219.9375 155.496094 219.445312 155.546875 C 218.953125 155.59375 218.460938 155.59375 217.964844 155.546875 C 217.472656 155.5 216.988281 155.402344 216.511719 155.261719 C 216.039062 155.117188 215.582031 154.929688 215.144531 154.699219 C 214.707031 154.464844 214.296875 154.191406 213.914062 153.878906 C 213.53125 153.566406 213.179688 153.21875 212.863281 152.835938 C 212.550781 152.453125 212.273438 152.042969 212.039062 151.609375 C 211.804688 151.171875 211.617188 150.714844 211.472656 150.242188 C 211.328125 149.769531 211.230469 149.285156 211.179688 148.792969 C 211.132812 148.300781 211.132812 147.808594 211.179688 147.316406 C 211.226562 146.824219 211.324219 146.339844 211.464844 145.867188 C 211.609375 145.390625 211.796875 144.9375 212.03125 144.5 C 212.261719 144.0625 212.535156 143.652344 212.851562 143.269531 C 213.164062 142.886719 213.511719 142.539062 213.894531 142.222656 C 214.277344 141.910156 214.6875 141.632812 215.125 141.402344 C 215.5625 141.167969 216.019531 140.976562 216.492188 140.832031 C 216.964844 140.6875 217.449219 140.59375 217.945312 140.542969 C 218.4375 140.492188 218.929688 140.492188 219.421875 140.539062 Z M 219.421875 140.539062 " fill-opacity="1" fill-rule="nonzero"/><path fill="#1174a5" d="M 186.597656 150.152344 C 187.207031 150.210938 187.800781 150.328125 188.386719 150.503906 C 188.96875 150.679688 189.53125 150.910156 190.070312 151.199219 C 190.609375 151.484375 191.113281 151.820312 191.585938 152.207031 C 192.058594 152.589844 192.488281 153.019531 192.878906 153.492188 C 193.265625 153.960938 193.601562 154.464844 193.890625 155 C 194.179688 155.539062 194.414062 156.097656 194.589844 156.679688 C 194.769531 157.261719 194.886719 157.859375 194.949219 158.464844 C 195.011719 159.070312 195.011719 159.675781 194.953125 160.28125 C 194.894531 160.890625 194.777344 161.484375 194.597656 162.066406 C 194.421875 162.652344 194.191406 163.210938 193.90625 163.75 C 193.617188 164.285156 193.28125 164.792969 192.894531 165.261719 C 192.507812 165.734375 192.078125 166.164062 191.609375 166.550781 C 191.136719 166.9375 190.632812 167.277344 190.09375 167.5625 C 189.558594 167.851562 188.996094 168.085938 188.414062 168.261719 C 187.828125 168.441406 187.234375 168.558594 186.625 168.621094 C 186.019531 168.679688 185.410156 168.683594 184.804688 168.621094 C 184.195312 168.5625 183.601562 168.445312 183.015625 168.269531 C 182.433594 168.09375 181.871094 167.863281 181.332031 167.578125 C 180.792969 167.289062 180.289062 166.953125 179.816406 166.570312 C 179.34375 166.183594 178.914062 165.753906 178.527344 165.285156 C 178.136719 164.8125 177.800781 164.308594 177.511719 163.773438 C 177.222656 163.238281 176.988281 162.675781 176.8125 162.09375 C 176.632812 161.511719 176.515625 160.917969 176.453125 160.3125 C 176.394531 159.703125 176.390625 159.097656 176.453125 158.492188 C 176.511719 157.886719 176.628906 157.289062 176.804688 156.707031 C 176.980469 156.125 177.210938 155.5625 177.5 155.027344 C 177.785156 154.488281 178.121094 153.984375 178.507812 153.511719 C 178.894531 153.039062 179.324219 152.609375 179.796875 152.222656 C 180.265625 151.835938 180.769531 151.5 181.308594 151.210938 C 181.847656 150.921875 182.40625 150.691406 182.992188 150.511719 C 183.574219 150.335938 184.167969 150.214844 184.777344 150.15625 C 185.382812 150.09375 185.992188 150.09375 186.597656 150.152344 Z M 186.597656 150.152344 " fill-opacity="1" fill-rule="nonzero"/><path fill="#083459" d="M 155.613281 155.640625 C 156.3125 155.847656 156.984375 156.121094 157.632812 156.460938 C 158.28125 156.796875 158.886719 157.199219 159.457031 157.65625 C 160.023438 158.113281 160.542969 158.625 161.011719 159.183594 C 161.476562 159.746094 161.886719 160.34375 162.234375 160.984375 C 162.585938 161.625 162.867188 162.296875 163.085938 162.992188 C 163.304688 163.6875 163.449219 164.398438 163.527344 165.125 C 163.605469 165.851562 163.609375 166.574219 163.542969 167.300781 C 163.476562 168.027344 163.34375 168.742188 163.136719 169.441406 C 162.929688 170.140625 162.65625 170.8125 162.316406 171.460938 C 161.976562 172.105469 161.578125 172.710938 161.117188 173.28125 C 160.660156 173.847656 160.148438 174.363281 159.585938 174.832031 C 159.027344 175.296875 158.425781 175.707031 157.78125 176.054688 C 157.140625 176.402344 156.472656 176.6875 155.773438 176.902344 C 155.074219 177.121094 154.363281 177.269531 153.636719 177.34375 C 152.910156 177.421875 152.183594 177.429688 151.457031 177.363281 C 150.726562 177.296875 150.015625 177.160156 149.3125 176.953125 C 148.613281 176.746094 147.9375 176.472656 147.292969 176.136719 C 146.644531 175.796875 146.035156 175.398438 145.46875 174.9375 C 144.898438 174.480469 144.382812 173.972656 143.914062 173.410156 C 143.445312 172.851562 143.039062 172.25 142.6875 171.609375 C 142.339844 170.96875 142.054688 170.300781 141.839844 169.601562 C 141.621094 168.90625 141.472656 168.195312 141.398438 167.46875 C 141.320312 166.746094 141.3125 166.019531 141.378906 165.292969 C 141.445312 164.566406 141.582031 163.851562 141.789062 163.152344 C 141.996094 162.453125 142.269531 161.78125 142.609375 161.132812 C 142.949219 160.488281 143.347656 159.882812 143.808594 159.316406 C 144.265625 158.746094 144.777344 158.230469 145.339844 157.761719 C 145.898438 157.296875 146.5 156.886719 147.140625 156.539062 C 147.785156 156.191406 148.453125 155.90625 149.152344 155.691406 C 149.847656 155.472656 150.5625 155.328125 151.289062 155.25 C 152.015625 155.171875 152.742188 155.167969 153.46875 155.234375 C 154.195312 155.296875 154.910156 155.433594 155.613281 155.640625 Z M 155.613281 155.640625 " fill-opacity="1" fill-rule="nonzero"/><path fill="#083459" d="M 100.359375 117.742188 C 86.074219 118.421875 73.304688 118.292969 62.007812 117.632812 C 57.644531 125.65625 53.996094 134.128906 51.160156 142.972656 C 65.617188 144.222656 82.390625 144.675781 101.601562 143.765625 C 108.804688 143.421875 114.355469 137.320312 114.011719 130.136719 C 113.675781 122.949219 107.5625 117.402344 100.359375 117.742188 Z M 109.308594 131.507812 C 108.691406 136.148438 104.417969 139.402344 99.769531 138.785156 C 95.125 138.164062 91.859375 133.898438 92.480469 129.253906 C 93.101562 124.617188 97.382812 121.351562 102.019531 121.980469 C 106.667969 122.605469 109.933594 126.863281 109.308594 131.507812 Z M 109.308594 131.507812 " fill-opacity="1" fill-rule="nonzero"/><path fill="#31d8ff" d="M 236.910156 98.242188 C 237.285156 98.355469 237.644531 98.503906 237.992188 98.6875 C 238.335938 98.875 238.664062 99.089844 238.964844 99.339844 C 239.269531 99.585938 239.546875 99.863281 239.796875 100.164062 C 240.042969 100.46875 240.261719 100.792969 240.445312 101.136719 C 240.632812 101.484375 240.78125 101.84375 240.894531 102.21875 C 241.007812 102.59375 241.085938 102.976562 241.125 103.367188 C 241.164062 103.753906 241.164062 104.144531 241.125 104.535156 C 241.085938 104.925781 241.011719 105.308594 240.898438 105.683594 C 240.78125 106.058594 240.632812 106.417969 240.449219 106.765625 C 240.265625 107.109375 240.046875 107.433594 239.796875 107.738281 C 239.550781 108.039062 239.273438 108.316406 238.96875 108.5625 C 238.667969 108.8125 238.34375 109.03125 237.996094 109.214844 C 237.648438 109.398438 237.289062 109.550781 236.914062 109.664062 C 236.539062 109.777344 236.15625 109.851562 235.765625 109.890625 C 235.375 109.929688 234.984375 109.929688 234.59375 109.890625 C 234.203125 109.855469 233.820312 109.777344 233.445312 109.664062 C 233.070312 109.550781 232.707031 109.402344 232.363281 109.21875 C 232.015625 109.03125 231.691406 108.816406 231.386719 108.566406 C 231.082031 108.320312 230.808594 108.042969 230.558594 107.742188 C 230.308594 107.4375 230.089844 107.113281 229.90625 106.769531 C 229.722656 106.421875 229.570312 106.0625 229.457031 105.6875 C 229.34375 105.3125 229.265625 104.929688 229.230469 104.539062 C 229.191406 104.152344 229.191406 103.761719 229.226562 103.371094 C 229.265625 102.980469 229.34375 102.597656 229.457031 102.222656 C 229.570312 101.847656 229.71875 101.488281 229.902344 101.140625 C 230.089844 100.796875 230.304688 100.472656 230.554688 100.167969 C 230.804688 99.867188 231.078125 99.589844 231.382812 99.34375 C 231.6875 99.09375 232.011719 98.875 232.355469 98.691406 C 232.703125 98.507812 233.0625 98.359375 233.4375 98.242188 C 233.816406 98.128906 234.199219 98.054688 234.589844 98.015625 C 234.980469 97.976562 235.371094 97.976562 235.761719 98.015625 C 236.148438 98.050781 236.535156 98.128906 236.910156 98.242188 Z M 236.910156 98.242188 " fill-opacity="1" fill-rule="nonzero"/><path fill="#0ca6e2" d="M 201.15625 106.929688 C 201.617188 106.992188 202.066406 107.097656 202.507812 107.246094 C 202.945312 107.398438 203.367188 107.589844 203.769531 107.820312 C 204.171875 108.054688 204.546875 108.324219 204.894531 108.628906 C 205.242188 108.9375 205.558594 109.273438 205.839844 109.644531 C 206.121094 110.011719 206.367188 110.40625 206.570312 110.820312 C 206.773438 111.238281 206.9375 111.667969 207.054688 112.117188 C 207.175781 112.566406 207.25 113.023438 207.277344 113.484375 C 207.308594 113.949219 207.292969 114.410156 207.230469 114.871094 C 207.167969 115.328125 207.0625 115.777344 206.914062 116.21875 C 206.761719 116.65625 206.570312 117.074219 206.335938 117.476562 C 206.105469 117.878906 205.832031 118.253906 205.527344 118.601562 C 205.21875 118.949219 204.882812 119.265625 204.511719 119.546875 C 204.144531 119.828125 203.75 120.070312 203.332031 120.273438 C 202.914062 120.480469 202.480469 120.640625 202.03125 120.757812 C 201.585938 120.878906 201.128906 120.953125 200.664062 120.980469 C 200.199219 121.011719 199.738281 120.996094 199.277344 120.933594 C 198.816406 120.871094 198.367188 120.765625 197.925781 120.617188 C 197.488281 120.464844 197.066406 120.273438 196.664062 120.042969 C 196.261719 119.808594 195.886719 119.539062 195.539062 119.230469 C 195.191406 118.925781 194.875 118.585938 194.59375 118.21875 C 194.3125 117.851562 194.070312 117.457031 193.863281 117.042969 C 193.660156 116.625 193.496094 116.191406 193.378906 115.742188 C 193.257812 115.296875 193.183594 114.839844 193.15625 114.378906 C 193.125 113.914062 193.140625 113.453125 193.203125 112.992188 C 193.265625 112.535156 193.371094 112.085938 193.523438 111.644531 C 193.671875 111.207031 193.863281 110.785156 194.097656 110.386719 C 194.332031 109.984375 194.601562 109.609375 194.90625 109.261719 C 195.214844 108.914062 195.554688 108.597656 195.921875 108.316406 C 196.292969 108.035156 196.683594 107.792969 197.101562 107.589844 C 197.519531 107.382812 197.953125 107.222656 198.402344 107.101562 C 198.851562 106.984375 199.308594 106.910156 199.769531 106.878906 C 200.234375 106.851562 200.695312 106.867188 201.15625 106.929688 Z M 201.15625 106.929688 " fill-opacity="1" fill-rule="nonzero"/><path fill="#1174a5" d="M 167.574219 113.273438 C 168.140625 113.347656 168.695312 113.480469 169.238281 113.664062 C 169.777344 113.847656 170.296875 114.085938 170.789062 114.371094 C 171.285156 114.65625 171.746094 114.988281 172.175781 115.367188 C 172.605469 115.746094 172.992188 116.160156 173.339844 116.613281 C 173.6875 117.066406 173.984375 117.550781 174.238281 118.0625 C 174.488281 118.574219 174.6875 119.109375 174.835938 119.660156 C 174.980469 120.210938 175.074219 120.773438 175.109375 121.34375 C 175.144531 121.910156 175.125 122.480469 175.050781 123.046875 C 174.972656 123.613281 174.84375 124.164062 174.660156 124.703125 C 174.472656 125.246094 174.238281 125.761719 173.949219 126.253906 C 173.664062 126.75 173.332031 127.210938 172.953125 127.640625 C 172.574219 128.066406 172.160156 128.453125 171.703125 128.800781 C 171.25 129.148438 170.765625 129.445312 170.253906 129.699219 C 169.738281 129.949219 169.207031 130.148438 168.652344 130.292969 C 168.101562 130.441406 167.539062 130.53125 166.96875 130.570312 C 166.398438 130.605469 165.828125 130.585938 165.261719 130.507812 C 164.695312 130.433594 164.140625 130.304688 163.601562 130.117188 C 163.058594 129.933594 162.542969 129.699219 162.046875 129.410156 C 161.550781 129.125 161.089844 128.792969 160.660156 128.414062 C 160.234375 128.039062 159.84375 127.621094 159.496094 127.167969 C 159.152344 126.714844 158.851562 126.230469 158.597656 125.71875 C 158.347656 125.207031 158.148438 124.675781 158 124.121094 C 157.855469 123.570312 157.761719 123.011719 157.726562 122.441406 C 157.691406 121.871094 157.710938 121.300781 157.789062 120.738281 C 157.863281 120.171875 157.992188 119.617188 158.179688 119.078125 C 158.363281 118.539062 158.601562 118.019531 158.886719 117.527344 C 159.171875 117.03125 159.507812 116.570312 159.882812 116.144531 C 160.261719 115.714844 160.679688 115.328125 161.132812 114.980469 C 161.585938 114.636719 162.070312 114.335938 162.585938 114.085938 C 163.097656 113.832031 163.632812 113.632812 164.183594 113.488281 C 164.738281 113.339844 165.296875 113.25 165.867188 113.214844 C 166.4375 113.179688 167.007812 113.199219 167.574219 113.273438 Z M 167.574219 113.273438 " fill-opacity="1" fill-rule="nonzero"/><path fill="#083459" d="M 137.671875 119.980469 C 138.25 120.171875 138.804688 120.417969 139.332031 120.722656 C 139.859375 121.023438 140.355469 121.375 140.816406 121.773438 C 141.273438 122.171875 141.691406 122.613281 142.0625 123.09375 C 142.4375 123.578125 142.757812 124.089844 143.03125 124.632812 C 143.300781 125.179688 143.519531 125.746094 143.675781 126.332031 C 143.835938 126.917969 143.9375 127.515625 143.980469 128.121094 C 144.023438 128.730469 144.003906 129.335938 143.929688 129.9375 C 143.851562 130.542969 143.714844 131.132812 143.523438 131.707031 C 143.328125 132.285156 143.082031 132.839844 142.777344 133.367188 C 142.476562 133.894531 142.125 134.386719 141.722656 134.847656 C 141.324219 135.304688 140.882812 135.722656 140.398438 136.09375 C 139.917969 136.464844 139.40625 136.789062 138.859375 137.058594 C 138.3125 137.328125 137.746094 137.546875 137.160156 137.703125 C 136.570312 137.863281 135.972656 137.964844 135.363281 138.007812 C 134.757812 138.050781 134.152344 138.03125 133.546875 137.957031 C 132.941406 137.878906 132.351562 137.742188 131.773438 137.550781 C 131.195312 137.355469 130.640625 137.109375 130.113281 136.804688 C 129.585938 136.503906 129.089844 136.152344 128.628906 135.753906 C 128.171875 135.355469 127.753906 134.914062 127.382812 134.433594 C 127.007812 133.953125 126.6875 133.4375 126.414062 132.894531 C 126.144531 132.347656 125.925781 131.785156 125.765625 131.195312 C 125.605469 130.609375 125.507812 130.011719 125.464844 129.40625 C 125.421875 128.796875 125.4375 128.195312 125.515625 127.589844 C 125.59375 126.988281 125.730469 126.394531 125.921875 125.820312 C 126.117188 125.242188 126.363281 124.691406 126.667969 124.160156 C 126.96875 123.632812 127.320312 123.140625 127.722656 122.679688 C 128.121094 122.222656 128.5625 121.808594 129.042969 121.433594 C 129.527344 121.0625 130.039062 120.742188 130.585938 120.46875 C 131.132812 120.199219 131.699219 119.984375 132.285156 119.824219 C 132.875 119.664062 133.472656 119.5625 134.078125 119.519531 C 134.6875 119.476562 135.292969 119.496094 135.898438 119.574219 C 136.503906 119.648438 137.09375 119.785156 137.671875 119.980469 Z M 137.671875 119.980469 " fill-opacity="1" fill-rule="nonzero"/><path fill="#083459" d="M 95.496094 87.210938 C 91.605469 87.152344 87.839844 87.039062 84.21875 86.871094 C 77.96875 93.546875 72.324219 100.800781 67.375 108.539062 C 75.875 109.339844 85.136719 109.859375 95.183594 109.996094 C 101.484375 110.085938 106.65625 105.054688 106.746094 98.761719 C 106.839844 92.46875 101.796875 87.292969 95.496094 87.210938 Z M 102.574219 99.710938 C 101.777344 103.730469 97.871094 106.339844 93.84375 105.546875 C 89.824219 104.753906 87.199219 100.859375 87.992188 96.839844 C 88.785156 92.820312 92.691406 90.203125 96.71875 90.996094 C 100.746094 91.789062 103.367188 95.683594 102.574219 99.710938 Z M 102.574219 99.710938 " fill-opacity="1" fill-rule="nonzero"/><path fill="#31d8ff" d="M 224.210938 73.90625 C 224.53125 74.023438 224.839844 74.175781 225.128906 74.355469 C 225.421875 74.535156 225.695312 74.742188 225.945312 74.972656 C 226.199219 75.207031 226.425781 75.460938 226.625 75.738281 C 226.828125 76.019531 227 76.3125 227.140625 76.625 C 227.285156 76.9375 227.398438 77.257812 227.476562 77.59375 C 227.554688 77.925781 227.601562 78.261719 227.613281 78.605469 C 227.628906 78.949219 227.605469 79.289062 227.550781 79.628906 C 227.496094 79.964844 227.410156 80.296875 227.292969 80.617188 C 227.171875 80.9375 227.023438 81.246094 226.839844 81.535156 C 226.660156 81.828125 226.453125 82.101562 226.222656 82.351562 C 225.988281 82.601562 225.730469 82.828125 225.453125 83.03125 C 225.175781 83.230469 224.878906 83.402344 224.566406 83.546875 C 224.257812 83.6875 223.933594 83.800781 223.597656 83.878906 C 223.265625 83.957031 222.925781 84.003906 222.582031 84.015625 C 222.242188 84.03125 221.898438 84.007812 221.558594 83.953125 C 221.222656 83.898438 220.890625 83.8125 220.570312 83.695312 C 220.246094 83.574219 219.941406 83.425781 219.648438 83.246094 C 219.355469 83.066406 219.082031 82.859375 218.832031 82.625 C 218.578125 82.394531 218.355469 82.136719 218.152344 81.859375 C 217.949219 81.582031 217.777344 81.289062 217.636719 80.976562 C 217.492188 80.664062 217.382812 80.339844 217.300781 80.007812 C 217.222656 79.675781 217.175781 79.335938 217.164062 78.992188 C 217.152344 78.652344 217.171875 78.3125 217.226562 77.972656 C 217.28125 77.632812 217.367188 77.304688 217.488281 76.984375 C 217.605469 76.660156 217.757812 76.355469 217.9375 76.0625 C 218.117188 75.769531 218.324219 75.5 218.558594 75.25 C 218.789062 74.996094 219.046875 74.769531 219.324219 74.570312 C 219.601562 74.367188 219.898438 74.195312 220.210938 74.054688 C 220.523438 73.910156 220.84375 73.800781 221.179688 73.722656 C 221.511719 73.640625 221.851562 73.59375 222.195312 73.582031 C 222.539062 73.570312 222.878906 73.589844 223.21875 73.644531 C 223.558594 73.699219 223.886719 73.785156 224.210938 73.90625 Z M 224.210938 73.90625 " fill-opacity="1" fill-rule="nonzero"/><path fill="#0ca6e2" d="M 193.097656 81.695312 C 193.496094 81.773438 193.882812 81.890625 194.257812 82.042969 C 194.632812 82.199219 194.992188 82.386719 195.328125 82.613281 C 195.667969 82.839844 195.980469 83.09375 196.269531 83.378906 C 196.558594 83.667969 196.8125 83.980469 197.039062 84.316406 C 197.265625 84.652344 197.457031 85.007812 197.613281 85.382812 C 197.769531 85.757812 197.890625 86.144531 197.96875 86.542969 C 198.050781 86.941406 198.089844 87.34375 198.089844 87.75 C 198.089844 88.152344 198.050781 88.554688 197.972656 88.953125 C 197.894531 89.351562 197.777344 89.738281 197.625 90.113281 C 197.46875 90.488281 197.277344 90.847656 197.054688 91.183594 C 196.828125 91.523438 196.570312 91.835938 196.285156 92.121094 C 195.996094 92.410156 195.683594 92.667969 195.347656 92.894531 C 195.011719 93.117188 194.652344 93.308594 194.277344 93.464844 C 193.902344 93.621094 193.515625 93.738281 193.117188 93.820312 C 192.71875 93.898438 192.316406 93.941406 191.910156 93.941406 C 191.503906 93.941406 191.101562 93.902344 190.703125 93.824219 C 190.300781 93.746094 189.914062 93.628906 189.539062 93.472656 C 189.164062 93.320312 188.804688 93.128906 188.46875 92.90625 C 188.128906 92.679688 187.816406 92.425781 187.527344 92.136719 C 187.242188 91.851562 186.984375 91.539062 186.757812 91.203125 C 186.53125 90.867188 186.339844 90.507812 186.183594 90.132812 C 186.027344 89.761719 185.910156 89.375 185.828125 88.976562 C 185.75 88.578125 185.707031 88.175781 185.707031 87.769531 C 185.707031 87.363281 185.746094 86.960938 185.824219 86.5625 C 185.902344 86.164062 186.019531 85.777344 186.175781 85.402344 C 186.328125 85.027344 186.519531 84.671875 186.746094 84.332031 C 186.96875 83.996094 187.226562 83.683594 187.511719 83.394531 C 187.800781 83.109375 188.113281 82.851562 188.449219 82.625 C 188.789062 82.398438 189.144531 82.207031 189.519531 82.050781 C 189.894531 81.894531 190.28125 81.777344 190.679688 81.699219 C 191.078125 81.617188 191.480469 81.578125 191.886719 81.578125 C 192.292969 81.578125 192.699219 81.617188 193.097656 81.695312 Z M 193.097656 81.695312 " fill-opacity="1" fill-rule="nonzero"/><path fill="#1174a5" d="M 163.832031 85.414062 C 164.324219 85.507812 164.800781 85.652344 165.261719 85.84375 C 165.722656 86.03125 166.164062 86.265625 166.578125 86.542969 C 166.996094 86.820312 167.382812 87.132812 167.734375 87.488281 C 168.089844 87.839844 168.40625 88.222656 168.683594 88.636719 C 168.960938 89.050781 169.199219 89.488281 169.390625 89.949219 C 169.582031 90.410156 169.726562 90.886719 169.828125 91.375 C 169.925781 91.867188 169.972656 92.359375 169.976562 92.859375 C 169.976562 93.359375 169.929688 93.851562 169.832031 94.34375 C 169.734375 94.832031 169.589844 95.308594 169.402344 95.769531 C 169.210938 96.230469 168.976562 96.671875 168.699219 97.085938 C 168.421875 97.5 168.105469 97.886719 167.753906 98.238281 C 167.402344 98.59375 167.015625 98.910156 166.601562 99.1875 C 166.1875 99.464844 165.746094 99.699219 165.285156 99.890625 C 164.824219 100.085938 164.347656 100.230469 163.859375 100.328125 C 163.367188 100.425781 162.871094 100.476562 162.371094 100.476562 C 161.871094 100.476562 161.378906 100.429688 160.886719 100.332031 C 160.394531 100.234375 159.917969 100.09375 159.457031 99.902344 C 158.996094 99.710938 158.554688 99.480469 158.140625 99.203125 C 157.722656 98.925781 157.335938 98.609375 156.984375 98.257812 C 156.628906 97.90625 156.3125 97.523438 156.035156 97.109375 C 155.757812 96.691406 155.519531 96.253906 155.328125 95.792969 C 155.136719 95.332031 154.992188 94.859375 154.894531 94.367188 C 154.792969 93.878906 154.746094 93.386719 154.742188 92.886719 C 154.742188 92.386719 154.789062 91.890625 154.886719 91.402344 C 154.984375 90.914062 155.128906 90.4375 155.316406 89.976562 C 155.507812 89.511719 155.742188 89.074219 156.019531 88.660156 C 156.296875 88.242188 156.613281 87.859375 156.964844 87.503906 C 157.316406 87.152344 157.703125 86.835938 158.117188 86.558594 C 158.53125 86.28125 158.972656 86.042969 159.433594 85.851562 C 159.894531 85.660156 160.371094 85.515625 160.859375 85.417969 C 161.351562 85.320312 161.847656 85.269531 162.347656 85.269531 C 162.847656 85.269531 163.339844 85.316406 163.832031 85.414062 Z M 163.832031 85.414062 " fill-opacity="1" fill-rule="nonzero"/><path fill="#083459" d="M 132.886719 87.976562 C 133.433594 88.199219 133.953125 88.46875 134.445312 88.792969 C 134.9375 89.117188 135.394531 89.484375 135.8125 89.898438 C 136.234375 90.308594 136.609375 90.757812 136.941406 91.246094 C 137.269531 91.734375 137.550781 92.246094 137.78125 92.789062 C 138.011719 93.332031 138.1875 93.890625 138.304688 94.464844 C 138.425781 95.042969 138.488281 95.625 138.492188 96.210938 C 138.496094 96.800781 138.441406 97.382812 138.332031 97.960938 C 138.222656 98.539062 138.054688 99.101562 137.835938 99.648438 C 137.613281 100.191406 137.339844 100.710938 137.019531 101.203125 C 136.695312 101.695312 136.324219 102.148438 135.914062 102.570312 C 135.5 102.988281 135.046875 103.363281 134.5625 103.695312 C 134.074219 104.023438 133.558594 104.304688 133.015625 104.535156 C 132.472656 104.761719 131.914062 104.9375 131.335938 105.058594 C 130.757812 105.175781 130.175781 105.238281 129.585938 105.242188 C 128.996094 105.246094 128.414062 105.195312 127.835938 105.085938 C 127.257812 104.972656 126.695312 104.808594 126.148438 104.589844 C 125.601562 104.367188 125.082031 104.09375 124.589844 103.773438 C 124.097656 103.449219 123.640625 103.082031 123.21875 102.667969 C 122.800781 102.253906 122.425781 101.804688 122.09375 101.320312 C 121.761719 100.832031 121.480469 100.320312 121.253906 99.777344 C 121.023438 99.234375 120.847656 98.675781 120.726562 98.101562 C 120.609375 97.523438 120.546875 96.941406 120.542969 96.351562 C 120.539062 95.765625 120.589844 95.183594 120.699219 94.605469 C 120.8125 94.027344 120.976562 93.464844 121.199219 92.917969 C 121.417969 92.375 121.691406 91.855469 122.015625 91.363281 C 122.339844 90.871094 122.707031 90.414062 123.121094 89.996094 C 123.535156 89.578125 123.984375 89.203125 124.472656 88.871094 C 124.960938 88.539062 125.472656 88.261719 126.015625 88.03125 C 126.558594 87.800781 127.121094 87.628906 127.695312 87.507812 C 128.273438 87.390625 128.855469 87.328125 129.445312 87.324219 C 130.035156 87.316406 130.621094 87.371094 131.199219 87.480469 C 131.777344 87.589844 132.339844 87.757812 132.886719 87.976562 Z M 132.886719 87.976562 " fill-opacity="1" fill-rule="nonzero"/><path fill="#083459" d="M 110.355469 67.171875 C 109.980469 73.054688 104.894531 77.523438 99 77.140625 C 97.507812 77.042969 96.023438 76.9375 94.566406 76.828125 C 99.507812 72.46875 104.746094 68.4375 110.234375 64.757812 C 110.363281 65.535156 110.402344 66.347656 110.351562 67.171875 Z M 110.355469 67.171875 " fill-opacity="1" fill-rule="nonzero"/><path fill="#31d8ff" d="M 217.957031 55.171875 C 218.253906 55.300781 218.53125 55.453125 218.796875 55.636719 C 219.0625 55.816406 219.308594 56.023438 219.53125 56.253906 C 219.757812 56.484375 219.957031 56.734375 220.132812 57 C 220.304688 57.269531 220.453125 57.554688 220.574219 57.851562 C 220.691406 58.152344 220.78125 58.457031 220.839844 58.773438 C 220.898438 59.089844 220.925781 59.40625 220.921875 59.730469 C 220.917969 60.050781 220.882812 60.367188 220.816406 60.679688 C 220.75 60.996094 220.652344 61.300781 220.523438 61.59375 C 220.398438 61.890625 220.242188 62.167969 220.0625 62.433594 C 219.878906 62.699219 219.671875 62.941406 219.441406 63.167969 C 219.210938 63.390625 218.960938 63.589844 218.691406 63.765625 C 218.421875 63.941406 218.140625 64.085938 217.839844 64.207031 C 217.542969 64.324219 217.234375 64.414062 216.917969 64.472656 C 216.601562 64.53125 216.28125 64.558594 215.960938 64.554688 C 215.640625 64.550781 215.320312 64.515625 215.007812 64.449219 C 214.691406 64.382812 214.386719 64.285156 214.09375 64.160156 C 213.796875 64.03125 213.515625 63.878906 213.25 63.695312 C 212.988281 63.515625 212.742188 63.308594 212.515625 63.078125 C 212.292969 62.847656 212.09375 62.597656 211.917969 62.328125 C 211.742188 62.058594 211.59375 61.777344 211.476562 61.476562 C 211.355469 61.179688 211.269531 60.875 211.210938 60.558594 C 211.152344 60.242188 211.125 59.921875 211.128906 59.601562 C 211.132812 59.28125 211.167969 58.964844 211.234375 58.648438 C 211.300781 58.335938 211.398438 58.03125 211.523438 57.734375 C 211.652344 57.441406 211.804688 57.160156 211.988281 56.898438 C 212.171875 56.632812 212.375 56.386719 212.605469 56.164062 C 212.835938 55.941406 213.085938 55.742188 213.355469 55.566406 C 213.625 55.390625 213.910156 55.242188 214.210938 55.125 C 214.507812 55.003906 214.816406 54.917969 215.132812 54.859375 C 215.449219 54.800781 215.765625 54.773438 216.085938 54.777344 C 216.410156 54.78125 216.726562 54.816406 217.042969 54.882812 C 217.355469 54.949219 217.660156 55.046875 217.957031 55.171875 Z M 217.957031 55.171875 " fill-opacity="1" fill-rule="nonzero"/><path fill="#0ca6e2" d="M 189.429688 55.769531 C 189.796875 55.859375 190.15625 55.988281 190.5 56.152344 C 190.84375 56.3125 191.167969 56.507812 191.476562 56.734375 C 191.78125 56.960938 192.0625 57.214844 192.320312 57.496094 C 192.574219 57.777344 192.800781 58.082031 192.996094 58.40625 C 193.195312 58.734375 193.355469 59.074219 193.484375 59.433594 C 193.613281 59.792969 193.707031 60.160156 193.761719 60.535156 C 193.816406 60.910156 193.835938 61.289062 193.816406 61.667969 C 193.800781 62.046875 193.746094 62.421875 193.652344 62.792969 C 193.558594 63.160156 193.433594 63.515625 193.269531 63.859375 C 193.105469 64.203125 192.914062 64.53125 192.6875 64.835938 C 192.460938 65.140625 192.203125 65.421875 191.921875 65.675781 C 191.640625 65.933594 191.335938 66.160156 191.011719 66.355469 C 190.683594 66.550781 190.339844 66.710938 189.980469 66.839844 C 189.625 66.96875 189.257812 67.0625 188.878906 67.117188 C 188.503906 67.171875 188.125 67.191406 187.742188 67.171875 C 187.363281 67.15625 186.988281 67.101562 186.617188 67.007812 C 186.25 66.914062 185.890625 66.789062 185.546875 66.625 C 185.203125 66.464844 184.878906 66.269531 184.570312 66.042969 C 184.265625 65.816406 183.984375 65.5625 183.726562 65.28125 C 183.472656 65 183.246094 64.695312 183.050781 64.371094 C 182.855469 64.042969 182.691406 63.703125 182.5625 63.34375 C 182.433594 62.984375 182.34375 62.617188 182.285156 62.242188 C 182.230469 61.867188 182.210938 61.488281 182.230469 61.109375 C 182.246094 60.730469 182.304688 60.355469 182.394531 59.984375 C 182.488281 59.617188 182.613281 59.261719 182.777344 58.914062 C 182.941406 58.570312 183.136719 58.246094 183.363281 57.941406 C 183.589844 57.636719 183.84375 57.355469 184.125 57.101562 C 184.40625 56.84375 184.710938 56.617188 185.039062 56.421875 C 185.363281 56.226562 185.707031 56.066406 186.066406 55.9375 C 186.421875 55.808594 186.792969 55.714844 187.167969 55.660156 C 187.546875 55.605469 187.921875 55.585938 188.304688 55.601562 C 188.683594 55.621094 189.058594 55.675781 189.429688 55.769531 Z M 189.429688 55.769531 " fill-opacity="1" fill-rule="nonzero"/><path fill="#1174a5" d="M 161.878906 57.875 C 162.332031 57.988281 162.773438 58.144531 163.195312 58.34375 C 163.621094 58.542969 164.019531 58.785156 164.398438 59.0625 C 164.773438 59.339844 165.117188 59.652344 165.433594 60 C 165.75 60.34375 166.027344 60.71875 166.269531 61.121094 C 166.507812 61.519531 166.707031 61.941406 166.867188 62.382812 C 167.023438 62.820312 167.136719 63.273438 167.207031 63.734375 C 167.277344 64.199219 167.300781 64.664062 167.277344 65.128906 C 167.253906 65.597656 167.1875 66.058594 167.074219 66.511719 C 166.960938 66.964844 166.804688 67.402344 166.601562 67.828125 C 166.402344 68.25 166.164062 68.648438 165.882812 69.027344 C 165.605469 69.402344 165.292969 69.746094 164.945312 70.0625 C 164.597656 70.375 164.226562 70.652344 163.824219 70.894531 C 163.421875 71.132812 163 71.332031 162.558594 71.492188 C 162.117188 71.648438 161.667969 71.761719 161.203125 71.832031 C 160.738281 71.902344 160.273438 71.925781 159.804688 71.902344 C 159.339844 71.878906 158.878906 71.8125 158.421875 71.699219 C 157.96875 71.585938 157.527344 71.425781 157.105469 71.226562 C 156.683594 71.027344 156.28125 70.789062 155.90625 70.511719 C 155.527344 70.234375 155.183594 69.921875 154.867188 69.574219 C 154.554688 69.226562 154.277344 68.855469 154.035156 68.453125 C 153.792969 68.050781 153.59375 67.632812 153.433594 67.191406 C 153.277344 66.75 153.164062 66.300781 153.09375 65.835938 C 153.027344 65.375 153.003906 64.910156 153.023438 64.441406 C 153.046875 63.976562 153.117188 63.515625 153.230469 63.0625 C 153.34375 62.605469 153.5 62.167969 153.699219 61.746094 C 153.898438 61.324219 154.136719 60.921875 154.417969 60.546875 C 154.695312 60.171875 155.007812 59.828125 155.355469 59.511719 C 155.703125 59.199219 156.078125 58.921875 156.480469 58.679688 C 156.878906 58.4375 157.300781 58.238281 157.742188 58.082031 C 158.183594 57.921875 158.636719 57.808594 159.097656 57.742188 C 159.5625 57.671875 160.027344 57.648438 160.496094 57.671875 C 160.964844 57.695312 161.425781 57.761719 161.878906 57.875 Z M 161.878906 57.875 " fill-opacity="1" fill-rule="nonzero"/><path fill="#083459" d="M 133.664062 63.128906 C 134.117188 63.339844 134.542969 63.59375 134.949219 63.886719 C 135.351562 64.183594 135.722656 64.511719 136.058594 64.878906 C 136.398438 65.246094 136.695312 65.644531 136.957031 66.070312 C 137.214844 66.496094 137.433594 66.945312 137.601562 67.410156 C 137.773438 67.878906 137.898438 68.359375 137.976562 68.855469 C 138.050781 69.347656 138.082031 69.84375 138.058594 70.339844 C 138.039062 70.839844 137.96875 71.332031 137.851562 71.816406 C 137.730469 72.300781 137.566406 72.769531 137.359375 73.222656 C 137.148438 73.671875 136.894531 74.101562 136.597656 74.503906 C 136.304688 74.90625 135.972656 75.277344 135.605469 75.613281 C 135.238281 75.953125 134.839844 76.25 134.414062 76.507812 C 133.988281 76.769531 133.539062 76.984375 133.070312 77.15625 C 132.601562 77.328125 132.117188 77.449219 131.625 77.527344 C 131.132812 77.605469 130.632812 77.632812 130.136719 77.609375 C 129.636719 77.589844 129.144531 77.519531 128.660156 77.402344 C 128.171875 77.285156 127.703125 77.121094 127.25 76.910156 C 126.796875 76.699219 126.371094 76.449219 125.964844 76.152344 C 125.5625 75.859375 125.191406 75.527344 124.855469 75.160156 C 124.515625 74.792969 124.214844 74.398438 123.957031 73.96875 C 123.695312 73.542969 123.480469 73.097656 123.308594 72.628906 C 123.136719 72.160156 123.015625 71.679688 122.9375 71.1875 C 122.859375 70.695312 122.832031 70.199219 122.855469 69.699219 C 122.875 69.199219 122.945312 68.710938 123.0625 68.226562 C 123.179688 67.738281 123.34375 67.273438 123.554688 66.820312 C 123.765625 66.367188 124.019531 65.9375 124.3125 65.535156 C 124.609375 65.132812 124.941406 64.765625 125.308594 64.425781 C 125.675781 64.089844 126.074219 63.789062 126.5 63.53125 C 126.925781 63.269531 127.375 63.054688 127.84375 62.886719 C 128.3125 62.714844 128.796875 62.589844 129.289062 62.511719 C 129.78125 62.4375 130.277344 62.410156 130.777344 62.429688 C 131.277344 62.449219 131.769531 62.519531 132.253906 62.636719 C 132.742188 62.757812 133.210938 62.921875 133.664062 63.128906 Z M 133.664062 63.128906 " fill-opacity="1" fill-rule="nonzero"/><path fill="#31d8ff" d="M 220.847656 42.125 C 220.820312 42.257812 220.800781 42.394531 220.761719 42.523438 C 220.105469 45.140625 217.445312 46.730469 214.824219 46.082031 C 212.375 45.464844 210.8125 43.09375 211.171875 40.640625 C 214.433594 41.03125 217.660156 41.53125 220.847656 42.125 Z M 220.847656 42.125 " fill-opacity="1" fill-rule="nonzero"/><g clip-path="url(#49d8aa362f)"><path fill="#0ca6e2" d="M 199.445312 42.0625 C 198.671875 45.164062 195.515625 47.054688 192.414062 46.277344 C 189.441406 45.535156 187.589844 42.632812 188.101562 39.671875 C 189.8125 39.613281 191.535156 39.582031 193.265625 39.582031 C 195.359375 39.582031 197.449219 39.621094 199.527344 39.710938 C 199.664062 40.472656 199.640625 41.269531 199.4375 42.0625 Z M 199.445312 42.0625 " fill-opacity="1" fill-rule="nonzero"/></g><path fill="#1174a5" d="M 173.742188 44.277344 C 172.777344 48.085938 168.910156 50.414062 165.09375 49.464844 C 162.121094 48.722656 160.058594 46.230469 159.726562 43.359375 C 164.324219 42.308594 169 41.472656 173.75 40.847656 C 174.019531 41.9375 174.035156 43.113281 173.75 44.277344 Z M 173.742188 44.277344 " fill-opacity="1" fill-rule="nonzero"/><path fill="#083459" d="M 144.722656 47.644531 C 144.691406 48.101562 144.617188 48.5625 144.5 49.015625 C 143.480469 53.085938 139.355469 55.5625 135.277344 54.542969 C 133.972656 54.21875 132.828125 53.574219 131.910156 52.710938 C 136.078125 50.835938 140.359375 49.140625 144.722656 47.644531 Z M 144.722656 47.644531 " fill-opacity="1" fill-rule="nonzero"/></svg>