<svg xmlns="http://www.w3.org/2000/svg" xmlns:xlink="http://www.w3.org/1999/xlink" width="500" zoomAndPan="magnify" viewBox="0 0 375 374.999991" height="500" preserveAspectRatio="xMidYMid meet" version="1.0"><defs><g/><clipPath id="23d742d289"><path d="M 73.445312 169 L 181.292969 169 L 181.292969 225.714844 L 73.445312 225.714844 Z M 73.445312 169 " clip-rule="nonzero"/></clipPath><clipPath id="876a56a995"><path d="M 106 149.214844 L 113 149.214844 L 113 152 L 106 152 Z M 106 149.214844 " clip-rule="nonzero"/></clipPath></defs><g clip-path="url(#23d742d289)"><path fill="#1b75bb" d="M 83.808594 201.59375 C 83.808594 185.152344 114.257812 171.820312 151.820312 171.820312 C 162.378906 171.820312 172.375 172.875 181.292969 174.753906 C 170.097656 171.207031 156.335938 169.113281 141.460938 169.113281 C 103.898438 169.113281 73.445312 182.441406 73.445312 198.886719 C 73.445312 210.707031 89.183594 220.917969 111.988281 225.722656 C 94.914062 220.316406 83.808594 211.523438 83.808594 201.59375 " fill-opacity="1" fill-rule="nonzero"/></g><path fill="#42c6f3" d="M 119.4375 161.488281 C 122.085938 164.347656 128.210938 163.324219 128.296875 160.007812 C 128.359375 157.578125 124.515625 155.425781 120.851562 156.644531 C 117.933594 157.894531 118.265625 160.230469 119.4375 161.488281 " fill-opacity="1" fill-rule="nonzero"/><path fill="#00adee" d="M 103.039062 215.859375 C 102.464844 217.210938 104.65625 218.9375 107.015625 219.765625 C 109.789062 220.738281 112.527344 220.464844 111.632812 218.839844 C 110.460938 216.722656 104.476562 213.960938 103.039062 215.859375 " fill-opacity="1" fill-rule="nonzero"/><path fill="#00adee" d="M 105.929688 204.4375 C 105.75 200.769531 101.339844 197.652344 98.351562 200.089844 C 96.300781 202.265625 97.703125 205.238281 99.355469 206.652344 C 102.355469 209.226562 106.101562 207.960938 105.929688 204.4375 " fill-opacity="1" fill-rule="nonzero"/><path fill="#00adee" d="M 116.523438 195.921875 C 116.582031 192.304688 112.632812 189.601562 108.871094 191.875 C 105.742188 194.234375 106.480469 197.503906 108.003906 199.078125 C 111.039062 202.210938 116.453125 200.207031 116.523438 195.921875 " fill-opacity="1" fill-rule="nonzero"/><path fill="#00adee" d="M 122.433594 176.621094 C 122.441406 176.550781 122.445312 176.480469 122.449219 176.410156 C 119.066406 177.125 115.824219 177.976562 112.742188 178.945312 C 112.773438 178.996094 112.804688 179.050781 112.835938 179.097656 C 115.414062 182.796875 121.78125 181.15625 122.433594 176.621094 " fill-opacity="1" fill-rule="nonzero"/><path fill="#42c6f3" d="M 104.890625 155.234375 C 102.527344 156.558594 102.257812 158.382812 102.816406 159.261719 C 104.164062 161.367188 109.515625 159.59375 110.0625 156.859375 C 110.441406 154.980469 107.828125 153.820312 104.890625 155.234375 " fill-opacity="1" fill-rule="nonzero"/><path fill="#42c6f3" d="M 106.867188 167.753906 C 108.96875 170.847656 115.175781 169.019531 115.84375 165.109375 C 116.332031 162.261719 112.957031 160.125 109.160156 161.910156 C 106.046875 163.6875 105.941406 166.398438 106.867188 167.753906 " fill-opacity="1" fill-rule="nonzero"/><path fill="#00adee" d="M 92.507812 206.914062 C 92.457031 206.96875 92.40625 207.058594 92.363281 207.117188 C 91.5625 208.871094 93.558594 211.496094 95.226562 212.796875 C 97.640625 214.679688 99.847656 214.566406 99.679688 212.566406 C 99.40625 209.316406 94.113281 205.144531 92.507812 206.914062 " fill-opacity="1" fill-rule="nonzero"/><path fill="#42c6f3" d="M 112.941406 154.214844 C 115.351562 155.859375 120.761719 154.710938 120.363281 152.636719 C 120.089844 151.222656 116.566406 150.289062 113.640625 151.289062 C 111.386719 152.230469 112.015625 153.585938 112.941406 154.214844 " fill-opacity="1" fill-rule="nonzero"/><path fill="#00adee" d="M 100.148438 187.339844 C 102.546875 190.78125 108.207031 188.933594 109.054688 184.433594 C 109.320312 183.03125 108.960938 181.59375 108.167969 180.515625 C 106.871094 181.003906 105.609375 181.515625 104.390625 182.050781 C 102.578125 182.84375 100.890625 183.671875 99.324219 184.53125 C 99.324219 185.632812 99.65625 186.632812 100.148438 187.339844 " fill-opacity="1" fill-rule="nonzero"/><path fill="#00adee" d="M 97.214844 193.859375 C 97.742188 191.035156 96.363281 188.40625 94.539062 187.527344 C 92.664062 188.875 91.0625 190.28125 89.753906 191.734375 C 89.746094 193.21875 90.25 194.628906 90.824219 195.507812 C 92.90625 198.675781 96.488281 197.753906 97.214844 193.859375 " fill-opacity="1" fill-rule="nonzero"/><path fill="#00adee" d="M 87.179688 195.289062 C 86.257812 196.953125 85.699219 198.65625 85.519531 200.382812 C 85.789062 201.054688 86.089844 201.664062 86.375 202.132812 C 87.8125 204.507812 89.433594 205.015625 89.910156 203.246094 C 90.542969 200.914062 88.886719 196.8125 87.179688 195.289062 " fill-opacity="1" fill-rule="nonzero"/><path fill="#00adee" d="M 108.117188 209.902344 C 106.558594 211.589844 108.003906 213.753906 110.296875 214.878906 C 113.175781 216.285156 117.09375 215.878906 116.179688 212.960938 C 115.355469 210.308594 110.789062 207.753906 108.117188 209.902344 " fill-opacity="1" fill-rule="nonzero"/><g clip-path="url(#876a56a995)"><path fill="#42c6f3" d="M 106.703125 150.890625 C 106.898438 150.984375 107.265625 151.035156 107.375 151.046875 C 109.636719 151.328125 112.996094 150.300781 112.539062 149.675781 C 112.199219 149.21875 109.800781 149.421875 107.214844 150.371094 C 106.722656 150.566406 106.371094 150.726562 106.703125 150.890625 " fill-opacity="1" fill-rule="nonzero"/></g><path fill="#42c6f3" d="M 121.609375 184.324219 C 118.21875 186.304688 118.496094 189.675781 119.773438 191.433594 C 122.371094 195.011719 127.894531 193.664062 128.589844 189.285156 C 129.171875 185.652344 125.65625 182.472656 121.609375 184.324219 " fill-opacity="1" fill-rule="nonzero"/><path fill="#00adee" d="M 87.71875 173.0625 C 90.273438 171.050781 91.671875 165.558594 90.125 165.414062 C 89.75 165.378906 89.363281 165.710938 89.109375 165.929688 C 87.628906 167.402344 86.472656 169.988281 86.210938 171.640625 C 85.941406 173.335938 86.589844 173.949219 87.71875 173.0625 " fill-opacity="1" fill-rule="nonzero"/><path fill="#00adee" d="M 119.269531 216.683594 C 118.191406 217.894531 120.078125 219.117188 122.441406 219.558594 C 124.332031 219.910156 128.195312 219.875 127.210938 218.511719 C 126.234375 217.148438 121.40625 215.015625 119.269531 216.683594 " fill-opacity="1" fill-rule="nonzero"/><path fill="#42c6f3" d="M 124.1875 206.417969 C 123.855469 203.304688 120.253906 201.015625 117.03125 202.945312 C 114.640625 204.761719 115.226562 207.375 117.175781 208.851562 C 120.117188 211.085938 124.582031 210.0625 124.1875 206.417969 " fill-opacity="1" fill-rule="nonzero"/><path fill="#00adee" d="M 105.59375 152.425781 C 105.78125 151.660156 104.449219 151.515625 102.519531 152.488281 C 100.6875 153.46875 100.894531 154.125 100.957031 154.246094 C 101.457031 155.261719 105.269531 153.765625 105.59375 152.425781 " fill-opacity="1" fill-rule="nonzero"/><path fill="#42c6f3" d="M 97.613281 168.761719 C 94.878906 170.765625 94.375 173.582031 94.863281 175.164062 C 97.414062 174.171875 100.136719 173.261719 103.011719 172.445312 C 103.914062 169.257812 101.46875 166.90625 98.410156 168.308594 C 98.160156 168.421875 97.847656 168.613281 97.613281 168.761719 " fill-opacity="1" fill-rule="nonzero"/><path fill="#00adee" d="M 95.507812 158.90625 C 97.410156 158.210938 99.71875 155.140625 98.917969 154.8125 C 98.675781 154.714844 98.175781 155.042969 97.878906 155.238281 C 96.515625 156.183594 95.316406 157.367188 94.886719 158.1875 C 94.523438 158.882812 94.773438 159.171875 95.507812 158.90625 " fill-opacity="1" fill-rule="nonzero"/><path fill="#00adee" d="M 98.507812 164.386719 C 100.554688 161.847656 99.90625 159.449219 97.90625 159.679688 C 97.195312 159.761719 96.625 160.121094 96.246094 160.359375 C 93.957031 162.011719 93.113281 164.347656 93.246094 165.480469 C 93.503906 167.675781 96.648438 166.6875 98.507812 164.386719 " fill-opacity="1" fill-rule="nonzero"/><path fill="#00adee" d="M 89.175781 175.542969 C 88.695312 175.683594 88.394531 175.9375 88.078125 176.203125 C 87.277344 177.023438 86.757812 178.042969 86.445312 179.078125 C 87.984375 178.21875 89.632812 177.398438 91.371094 176.621094 C 90.910156 175.730469 90.152344 175.261719 89.175781 175.542969 " fill-opacity="1" fill-rule="nonzero"/><g fill="#19181a" fill-opacity="1"><g transform="translate(138.913764, 204.279318)"><g><path d="M 17.84375 -9.71875 C 17.84375 -7.550781 17.4375 -5.75 16.625 -4.3125 C 15.820312 -2.875 14.6875 -1.796875 13.21875 -1.078125 C 11.75 -0.359375 10.023438 0 8.046875 0 L 2.015625 0 L 2.015625 -18.65625 L 8.46875 -18.65625 C 10.476562 -18.65625 12.179688 -18.304688 13.578125 -17.609375 C 14.972656 -16.921875 16.03125 -15.914062 16.75 -14.59375 C 17.476562 -13.269531 17.84375 -11.644531 17.84375 -9.71875 Z M 12.609375 -9.546875 C 12.609375 -10.671875 12.457031 -11.601562 12.15625 -12.34375 C 11.851562 -13.09375 11.398438 -13.648438 10.796875 -14.015625 C 10.203125 -14.390625 9.441406 -14.578125 8.515625 -14.578125 L 7.046875 -14.578125 L 7.046875 -4.140625 L 8.171875 -4.140625 C 9.703125 -4.140625 10.820312 -4.582031 11.53125 -5.46875 C 12.25 -6.351562 12.609375 -7.710938 12.609375 -9.546875 Z M 12.609375 -9.546875 "/></g></g></g><g fill="#19181a" fill-opacity="1"><g transform="translate(163.936097, 204.279318)"><g><path d="M 2.015625 0 L 2.015625 -18.65625 L 7.078125 -18.65625 L 7.078125 0 Z M 2.015625 0 "/></g></g></g><g fill="#19181a" fill-opacity="1"><g transform="translate(178.882423, 204.279318)"><g><path d="M 9.5 -10.921875 L 17.546875 -10.921875 L 17.546875 -0.875 C 16.585938 -0.539062 15.488281 -0.269531 14.25 -0.0625 C 13.007812 0.144531 11.707031 0.25 10.34375 0.25 C 8.550781 0.25 6.976562 -0.0976562 5.625 -0.796875 C 4.269531 -1.492188 3.210938 -2.550781 2.453125 -3.96875 C 1.703125 -5.394531 1.328125 -7.195312 1.328125 -9.375 C 1.328125 -11.332031 1.703125 -13.019531 2.453125 -14.4375 C 3.203125 -15.863281 4.304688 -16.96875 5.765625 -17.75 C 7.222656 -18.53125 9.007812 -18.921875 11.125 -18.921875 C 12.289062 -18.921875 13.394531 -18.804688 14.4375 -18.578125 C 15.488281 -18.359375 16.398438 -18.082031 17.171875 -17.75 L 15.578125 -13.796875 C 14.898438 -14.117188 14.203125 -14.363281 13.484375 -14.53125 C 12.765625 -14.695312 11.988281 -14.78125 11.15625 -14.78125 C 10.039062 -14.78125 9.144531 -14.53125 8.46875 -14.03125 C 7.789062 -13.53125 7.296875 -12.859375 6.984375 -12.015625 C 6.679688 -11.179688 6.53125 -10.257812 6.53125 -9.25 C 6.53125 -8.09375 6.691406 -7.113281 7.015625 -6.3125 C 7.347656 -5.519531 7.832031 -4.914062 8.46875 -4.5 C 9.101562 -4.09375 9.867188 -3.890625 10.765625 -3.890625 C 11.066406 -3.890625 11.429688 -3.910156 11.859375 -3.953125 C 12.285156 -3.992188 12.609375 -4.046875 12.828125 -4.109375 L 12.828125 -7.03125 L 9.5 -7.03125 Z M 9.5 -10.921875 "/></g></g></g><g fill="#19181a" fill-opacity="1"><g transform="translate(204.070559, 204.279318)"><g><path d="M 2.015625 0 L 2.015625 -18.65625 L 7.078125 -18.65625 L 7.078125 0 Z M 2.015625 0 "/></g></g></g><g fill="#19181a" fill-opacity="1"><g transform="translate(219.016885, 204.279318)"><g><path d="M 10.25 0 L 5.203125 0 L 5.203125 -14.53125 L 0.65625 -14.53125 L 0.65625 -18.65625 L 14.78125 -18.65625 L 14.78125 -14.53125 L 10.25 -14.53125 Z M 10.25 0 "/></g></g></g><g fill="#19181a" fill-opacity="1"><g transform="translate(240.302162, 204.279318)"><g><path d="M 13.453125 0 L 12.546875 -3.5 L 6.484375 -3.5 L 5.53125 0 L 0 0 L 6.078125 -18.71875 L 12.8125 -18.71875 L 18.96875 0 Z M 11.5 -7.625 L 10.6875 -10.6875 C 10.601562 -11.019531 10.476562 -11.492188 10.3125 -12.109375 C 10.15625 -12.722656 10 -13.359375 9.84375 -14.015625 C 9.6875 -14.679688 9.566406 -15.226562 9.484375 -15.65625 C 9.398438 -15.226562 9.285156 -14.703125 9.140625 -14.078125 C 9.003906 -13.453125 8.863281 -12.832031 8.71875 -12.21875 C 8.570312 -11.601562 8.441406 -11.09375 8.328125 -10.6875 L 7.53125 -7.625 Z M 11.5 -7.625 "/></g></g></g><g fill="#19181a" fill-opacity="1"><g transform="translate(265.120424, 204.279318)"><g><path d="M 2.015625 0 L 2.015625 -18.65625 L 7.046875 -18.65625 L 7.046875 -4.0625 L 14.234375 -4.0625 L 14.234375 0 Z M 2.015625 0 "/></g></g></g><g fill="#19181a" fill-opacity="1"><g transform="translate(164.101458, 220.812525)"><g><path d="M 10.359375 -7.890625 L 8.296875 0 L 6.890625 0 L 5.578125 -4.71875 C 5.546875 -4.832031 5.507812 -4.96875 5.46875 -5.125 C 5.425781 -5.289062 5.382812 -5.457031 5.34375 -5.625 C 5.3125 -5.789062 5.28125 -5.941406 5.25 -6.078125 C 5.21875 -6.210938 5.195312 -6.316406 5.1875 -6.390625 C 5.1875 -6.316406 5.171875 -6.210938 5.140625 -6.078125 C 5.117188 -5.941406 5.085938 -5.789062 5.046875 -5.625 C 5.015625 -5.46875 4.976562 -5.304688 4.9375 -5.140625 C 4.90625 -4.984375 4.875 -4.84375 4.84375 -4.71875 L 3.546875 0 L 2.140625 0 L 0.078125 -7.890625 L 1.375 -7.890625 L 2.515625 -3.265625 C 2.554688 -3.117188 2.59375 -2.957031 2.625 -2.78125 C 2.664062 -2.613281 2.703125 -2.441406 2.734375 -2.265625 C 2.765625 -2.097656 2.796875 -1.929688 2.828125 -1.765625 C 2.859375 -1.597656 2.882812 -1.453125 2.90625 -1.328125 C 2.914062 -1.460938 2.9375 -1.613281 2.96875 -1.78125 C 3 -1.945312 3.03125 -2.113281 3.0625 -2.28125 C 3.101562 -2.457031 3.140625 -2.625 3.171875 -2.78125 C 3.210938 -2.945312 3.253906 -3.097656 3.296875 -3.234375 L 4.578125 -7.890625 L 5.84375 -7.890625 L 7.140625 -3.21875 C 7.179688 -3.082031 7.21875 -2.929688 7.25 -2.765625 C 7.289062 -2.597656 7.328125 -2.425781 7.359375 -2.25 C 7.398438 -2.082031 7.4375 -1.914062 7.46875 -1.75 C 7.5 -1.59375 7.523438 -1.453125 7.546875 -1.328125 C 7.566406 -1.492188 7.597656 -1.691406 7.640625 -1.921875 C 7.679688 -2.148438 7.722656 -2.378906 7.765625 -2.609375 C 7.816406 -2.847656 7.867188 -3.066406 7.921875 -3.265625 L 9.0625 -7.890625 Z M 10.359375 -7.890625 "/></g></g></g><g fill="#19181a" fill-opacity="1"><g transform="translate(178.975286, 220.812525)"><g><path d="M 8.03125 -3.953125 C 8.03125 -3.347656 7.953125 -2.796875 7.796875 -2.296875 C 7.648438 -1.796875 7.421875 -1.363281 7.109375 -1 C 6.804688 -0.644531 6.425781 -0.367188 5.96875 -0.171875 C 5.507812 0.015625 4.972656 0.109375 4.359375 0.109375 C 3.722656 0.109375 3.171875 0.015625 2.703125 -0.171875 C 2.242188 -0.367188 1.863281 -0.644531 1.5625 -1 C 1.257812 -1.363281 1.03125 -1.796875 0.875 -2.296875 C 0.726562 -2.796875 0.65625 -3.351562 0.65625 -3.96875 C 0.65625 -4.78125 0.789062 -5.488281 1.0625 -6.09375 C 1.332031 -6.695312 1.738281 -7.164062 2.28125 -7.5 C 2.832031 -7.84375 3.523438 -8.015625 4.359375 -8.015625 C 5.179688 -8.015625 5.863281 -7.84375 6.40625 -7.5 C 6.945312 -7.164062 7.351562 -6.695312 7.625 -6.09375 C 7.894531 -5.488281 8.03125 -4.773438 8.03125 -3.953125 Z M 2.015625 -3.953125 C 2.015625 -3.347656 2.097656 -2.820312 2.265625 -2.375 C 2.429688 -1.925781 2.6875 -1.582031 3.03125 -1.34375 C 3.375 -1.113281 3.816406 -1 4.359375 -1 C 4.898438 -1 5.335938 -1.113281 5.671875 -1.34375 C 6.015625 -1.582031 6.265625 -1.925781 6.421875 -2.375 C 6.585938 -2.820312 6.671875 -3.347656 6.671875 -3.953125 C 6.671875 -4.878906 6.488281 -5.601562 6.125 -6.125 C 5.757812 -6.644531 5.171875 -6.90625 4.359375 -6.90625 C 3.816406 -6.90625 3.375 -6.785156 3.03125 -6.546875 C 2.6875 -6.316406 2.429688 -5.976562 2.265625 -5.53125 C 2.097656 -5.09375 2.015625 -4.566406 2.015625 -3.953125 Z M 2.015625 -3.953125 "/></g></g></g><g fill="#19181a" fill-opacity="1"><g transform="translate(192.1027, 220.812525)"><g><path d="M 3.25 -7.890625 C 3.925781 -7.890625 4.488281 -7.804688 4.9375 -7.640625 C 5.382812 -7.472656 5.710938 -7.21875 5.921875 -6.875 C 6.140625 -6.539062 6.25 -6.113281 6.25 -5.59375 C 6.25 -5.207031 6.175781 -4.875 6.03125 -4.59375 C 5.894531 -4.320312 5.707031 -4.097656 5.46875 -3.921875 C 5.238281 -3.742188 4.988281 -3.597656 4.71875 -3.484375 L 6.96875 0 L 5.5 0 L 3.59375 -3.15625 L 2.328125 -3.15625 L 2.328125 0 L 1.03125 0 L 1.03125 -7.890625 Z M 3.171875 -6.8125 L 2.328125 -6.8125 L 2.328125 -4.234375 L 3.21875 -4.234375 C 3.820312 -4.234375 4.257812 -4.34375 4.53125 -4.5625 C 4.800781 -4.78125 4.9375 -5.109375 4.9375 -5.546875 C 4.9375 -6.003906 4.789062 -6.328125 4.5 -6.515625 C 4.21875 -6.710938 3.773438 -6.8125 3.171875 -6.8125 Z M 3.171875 -6.8125 "/></g></g></g><g fill="#19181a" fill-opacity="1"><g transform="translate(203.591503, 220.812525)"><g><path d="M 1.03125 0 L 1.03125 -7.890625 L 2.328125 -7.890625 L 2.328125 -1.09375 L 5.6875 -1.09375 L 5.6875 0 Z M 1.03125 0 "/></g></g></g><g fill="#19181a" fill-opacity="1"><g transform="translate(214.029224, 220.812525)"><g><path d="M 7.4375 -4.015625 C 7.4375 -3.128906 7.269531 -2.390625 6.9375 -1.796875 C 6.613281 -1.203125 6.132812 -0.753906 5.5 -0.453125 C 4.875 -0.148438 4.113281 0 3.21875 0 L 1.03125 0 L 1.03125 -7.890625 L 3.46875 -7.890625 C 4.28125 -7.890625 4.984375 -7.738281 5.578125 -7.4375 C 6.171875 -7.144531 6.628906 -6.710938 6.953125 -6.140625 C 7.273438 -5.566406 7.4375 -4.859375 7.4375 -4.015625 Z M 6.09375 -3.984375 C 6.09375 -4.628906 5.988281 -5.160156 5.78125 -5.578125 C 5.582031 -5.992188 5.285156 -6.300781 4.890625 -6.5 C 4.492188 -6.707031 4.007812 -6.8125 3.4375 -6.8125 L 2.328125 -6.8125 L 2.328125 -1.078125 L 3.25 -1.078125 C 4.195312 -1.078125 4.90625 -1.320312 5.375 -1.8125 C 5.851562 -2.300781 6.09375 -3.023438 6.09375 -3.984375 Z M 6.09375 -3.984375 "/></g></g></g></svg>